<?xml version="1.0" encoding="UTF-8" standalone="no"?>
<!-- Created with Inkscape (http://www.inkscape.org/) -->
<svg
   xmlns:dc="http://purl.org/dc/elements/1.1/"
   xmlns:cc="http://creativecommons.org/ns#"
   xmlns:rdf="http://www.w3.org/1999/02/22-rdf-syntax-ns#"
   xmlns:svg="http://www.w3.org/2000/svg"
   xmlns="http://www.w3.org/2000/svg"
   xmlns:xlink="http://www.w3.org/1999/xlink"
   xmlns:sodipodi="http://sodipodi.sourceforge.net/DTD/sodipodi-0.dtd"
   xmlns:inkscape="http://www.inkscape.org/namespaces/inkscape"
   width="210mm"
   height="297mm"
   id="svg2433"
   sodipodi:version="0.32"
   inkscape:version="0.46"
   sodipodi:docname="couche-donnees-cache.svg"
   inkscape:output_extension="org.inkscape.output.svg.inkscape">
  <defs
     id="defs2435"><marker
   inkscape:stockid="Arrow1Mend"
   orient="auto"
   refY="0.0"
   refX="0.0"
   id="Arrow1Mend"
   style="overflow:visible;">
  <path
     id="path4853"
     d="M 0.0,0.0 L 5.0,-5.0 L -12.5,0.0 L 5.0,5.0 L 0.0,0.0 z "
     style="fill-rule:evenodd;stroke:#000000;stroke-width:1.0pt;marker-start:none;"
     transform="scale(0.4) rotate(180) translate(10,0)" />
</marker>
<inkscape:perspective
   sodipodi:type="inkscape:persp3d"
   inkscape:vp_x="0 : 526.18109 : 1"
   inkscape:vp_y="0 : 1000 : 0"
   inkscape:vp_z="744.09448 : 526.18109 : 1"
   inkscape:persp3d-origin="372.04724 : 350.78739 : 1"
   id="perspective2441" />
<marker
   style="overflow:visible"
   id="Arrow1Lstart"
   refX="0"
   refY="0"
   orient="auto"
   inkscape:stockid="Arrow1Lstart">
  <path
     transform="matrix(0.8,0,0,0.8,10,0)"
     style="fill-rule:evenodd;stroke:#000000;stroke-width:1pt;marker-start:none"
     d="M 0,0 L 5,-5 L -12.5,0 L 5,5 L 0,0 z "
     id="path4194" />
</marker>
<marker
   style="overflow:visible"
   id="Arrow1Mstart"
   refX="0"
   refY="0"
   orient="auto"
   inkscape:stockid="Arrow1Mstart">
  <path
     transform="matrix(0.4,0,0,0.4,4,0)"
     style="fill-rule:evenodd;stroke:#000000;stroke-width:1pt;marker-start:none"
     d="M 0,0 L 5,-5 L -12.5,0 L 5,5 L 0,0 z "
     id="path4200" />
</marker>
<marker
   style="overflow:visible"
   id="Arrow1Sstart"
   refX="0"
   refY="0"
   orient="auto"
   inkscape:stockid="Arrow1Sstart">
  <path
     transform="matrix(0.2,0,0,0.2,1.2,0)"
     style="fill-rule:evenodd;stroke:#000000;stroke-width:1pt;marker-start:none"
     d="M 0,0 L 5,-5 L -12.5,0 L 5,5 L 0,0 z "
     id="path4206" />
</marker>
<marker
   style="overflow:visible"
   id="Arrow1Send"
   refX="0"
   refY="0"
   orient="auto"
   inkscape:stockid="Arrow1Send">
  <path
     transform="matrix(-0.2,0,0,-0.2,-1.2,0)"
     style="fill-rule:evenodd;stroke:#000000;stroke-width:1pt;marker-start:none"
     d="M 0,0 L 5,-5 L -12.5,0 L 5,5 L 0,0 z "
     id="path4209" />
</marker>
<inkscape:perspective
   id="perspective2491"
   inkscape:persp3d-origin="310.5 : 65.690486 : 1"
   inkscape:vp_z="621 : 98.535728 : 1"
   inkscape:vp_y="0 : 1000 : 0"
   inkscape:vp_x="0 : 98.535728 : 1"
   sodipodi:type="inkscape:persp3d" />
<radialGradient
   gradientUnits="userSpaceOnUse"
   gradientTransform="matrix(1.000000,0.000000,0.000000,0.284916,0.000000,30.08928)"
   r="15.821514"
   fy="42.07798"
   fx="24.306795"
   cy="42.07798"
   cx="24.306795"
   id="radialGradient4548"
   xlink:href="#linearGradient4542"
   inkscape:collect="always" />
<linearGradient
   id="linearGradient259">
  <stop
     style="stop-color:#fafafa;stop-opacity:1.0000000;"
     offset="0.0000000"
     id="stop260" />
  <stop
     style="stop-color:#bbbbbb;stop-opacity:1.0000000;"
     offset="1.0000000"
     id="stop261" />
</linearGradient>
<linearGradient
   id="linearGradient269">
  <stop
     style="stop-color:#a3a3a3;stop-opacity:1.0000000;"
     offset="0.0000000"
     id="stop270" />
  <stop
     style="stop-color:#4c4c4c;stop-opacity:1.0000000;"
     offset="1.0000000"
     id="stop271" />
</linearGradient>
<radialGradient
   gradientUnits="userSpaceOnUse"
   fy="114.5684"
   fx="20.8921"
   r="5.256"
   cy="114.5684"
   cx="20.8921"
   id="aigrd2">
  <stop
     id="stop15566"
     style="stop-color:#F0F0F0"
     offset="0" />
  <stop
     id="stop15568"
     style="stop-color:#9a9a9a;stop-opacity:1.0000000;"
     offset="1.0000000" />
</radialGradient>
<radialGradient
   gradientUnits="userSpaceOnUse"
   fy="64.5679"
   fx="20.8921"
   r="5.257"
   cy="64.5679"
   cx="20.8921"
   id="aigrd3">
  <stop
     id="stop15573"
     style="stop-color:#F0F0F0"
     offset="0" />
  <stop
     id="stop15575"
     style="stop-color:#9a9a9a;stop-opacity:1.0000000;"
     offset="1.0000000" />
</radialGradient>
<linearGradient
   id="linearGradient15662">
  <stop
     style="stop-color:#ffffff;stop-opacity:1.0000000;"
     offset="0.0000000"
     id="stop15664" />
  <stop
     style="stop-color:#f8f8f8;stop-opacity:1.0000000;"
     offset="1.0000000"
     id="stop15666" />
</linearGradient>
<linearGradient
   id="linearGradient4542"
   inkscape:collect="always">
  <stop
     id="stop4544"
     offset="0"
     style="stop-color:#000000;stop-opacity:1;" />
  <stop
     id="stop4546"
     offset="1"
     style="stop-color:#000000;stop-opacity:0;" />
</linearGradient>
<linearGradient
   id="linearGradient5048">
  <stop
     id="stop5050"
     offset="0"
     style="stop-color:black;stop-opacity:0;" />
  <stop
     style="stop-color:black;stop-opacity:1;"
     offset="0.5"
     id="stop5056" />
  <stop
     id="stop5052"
     offset="1"
     style="stop-color:black;stop-opacity:0;" />
</linearGradient>
<linearGradient
   id="linearGradient5060"
   inkscape:collect="always">
  <stop
     id="stop5062"
     offset="0"
     style="stop-color:black;stop-opacity:1;" />
  <stop
     id="stop5064"
     offset="1"
     style="stop-color:black;stop-opacity:0;" />
</linearGradient>
<inkscape:perspective
   id="perspective3445"
   inkscape:persp3d-origin="24 : 16 : 1"
   inkscape:vp_z="48 : 24 : 1"
   inkscape:vp_y="0 : 1000 : 0"
   inkscape:vp_x="0 : 24 : 1"
   sodipodi:type="inkscape:persp3d" />
<linearGradient
   gradientUnits="userSpaceOnUse"
   y2="43.31715"
   x2="65.862885"
   y1="9.9124937"
   x1="44.592766"
   id="linearGradient3088"
   xlink:href="#linearGradient3082"
   inkscape:collect="always" />
<linearGradient
   y2="248.6311"
   x2="153.0005"
   y1="15.4238"
   x1="99.7773"
   gradientTransform="matrix(0.200685,0,0,0.200685,25.33302,3.157373)"
   gradientUnits="userSpaceOnUse"
   id="linearGradient2193"
   xlink:href="#aigrd1"
   inkscape:collect="always" />
<radialGradient
   gradientUnits="userSpaceOnUse"
   gradientTransform="matrix(1.000000,0.000000,0.000000,0.284916,0.000000,30.08928)"
   r="15.821514"
   fy="42.07798"
   fx="24.306795"
   cy="42.07798"
   cx="24.306795"
   id="radialGradient3672"
   xlink:href="#linearGradient4542"
   inkscape:collect="always" />
<radialGradient
   inkscape:collect="always"
   xlink:href="#aigrd3"
   id="radialGradient3670"
   gradientUnits="userSpaceOnUse"
   gradientTransform="matrix(0.229703,0.000000,0.000000,0.229703,4.613529,3.979808)"
   cx="20.8921"
   cy="64.5679"
   fx="20.8921"
   fy="64.5679"
   r="5.257" />
<radialGradient
   inkscape:collect="always"
   xlink:href="#aigrd2"
   id="radialGradient3668"
   gradientUnits="userSpaceOnUse"
   gradientTransform="matrix(0.229703,0.000000,0.000000,0.229703,4.613529,3.979808)"
   cx="20.8921"
   cy="114.5684"
   fx="20.8921"
   fy="114.5684"
   r="5.256" />
<radialGradient
   r="38.158695"
   fy="7.2678967"
   fx="8.1435566"
   cy="7.2678967"
   cx="8.1435566"
   gradientTransform="matrix(0.968273,0.000000,0.000000,1.032767,3.353553,0.646447)"
   gradientUnits="userSpaceOnUse"
   id="radialGradient3666"
   xlink:href="#linearGradient15662"
   inkscape:collect="always" />
<radialGradient
   r="86.708450"
   fy="35.736916"
   fx="33.966679"
   cy="35.736916"
   cx="33.966679"
   gradientTransform="scale(0.960493,1.041132)"
   gradientUnits="userSpaceOnUse"
   id="radialGradient3664"
   xlink:href="#linearGradient259"
   inkscape:collect="always" />
<radialGradient
   r="37.751713"
   fy="3.7561285"
   fx="8.8244190"
   cy="3.7561285"
   cx="8.8244190"
   gradientTransform="matrix(0.968273,0.000000,0.000000,1.032767,3.353553,0.646447)"
   gradientUnits="userSpaceOnUse"
   id="radialGradient3662"
   xlink:href="#linearGradient269"
   inkscape:collect="always" />
<linearGradient
   id="linearGradient3656">
  <stop
     style="stop-color:#fafafa;stop-opacity:1.0000000;"
     offset="0.0000000"
     id="stop3658" />
  <stop
     style="stop-color:#bbbbbb;stop-opacity:1.0000000;"
     offset="1.0000000"
     id="stop3660" />
</linearGradient>
<linearGradient
   id="linearGradient3650">
  <stop
     style="stop-color:#a3a3a3;stop-opacity:1.0000000;"
     offset="0.0000000"
     id="stop3652" />
  <stop
     style="stop-color:#4c4c4c;stop-opacity:1.0000000;"
     offset="1.0000000"
     id="stop3654" />
</linearGradient>
<radialGradient
   gradientUnits="userSpaceOnUse"
   fy="114.5684"
   fx="20.8921"
   r="5.256"
   cy="114.5684"
   cx="20.8921"
   id="radialGradient3644">
  <stop
     id="stop3646"
     style="stop-color:#F0F0F0"
     offset="0" />
  <stop
     id="stop3648"
     style="stop-color:#9a9a9a;stop-opacity:1.0000000;"
     offset="1.0000000" />
</radialGradient>
<radialGradient
   gradientUnits="userSpaceOnUse"
   fy="64.5679"
   fx="20.8921"
   r="5.257"
   cy="64.5679"
   cx="20.8921"
   id="radialGradient3638">
  <stop
     id="stop3640"
     style="stop-color:#F0F0F0"
     offset="0" />
  <stop
     id="stop3642"
     style="stop-color:#9a9a9a;stop-opacity:1.0000000;"
     offset="1.0000000" />
</radialGradient>
<linearGradient
   id="linearGradient3632">
  <stop
     style="stop-color:#ffffff;stop-opacity:1.0000000;"
     offset="0.0000000"
     id="stop3634" />
  <stop
     style="stop-color:#f8f8f8;stop-opacity:1.0000000;"
     offset="1.0000000"
     id="stop3636" />
</linearGradient>
<linearGradient
   y2="248.6311"
   x2="153.0005"
   y1="15.4238"
   x1="99.7773"
   gradientUnits="userSpaceOnUse"
   id="aigrd1">
  <stop
     id="stop53300"
     style="stop-color:#464646;stop-opacity:1"
     offset="0" />
  <stop
     id="stop53302"
     style="stop-color:#cdcdcd;stop-opacity:1"
     offset="1" />
</linearGradient>
<linearGradient
   id="linearGradient3082"
   inkscape:collect="always">
  <stop
     id="stop3084"
     offset="0"
     style="stop-color:#ffffff;stop-opacity:1;" />
  <stop
     id="stop3086"
     offset="1"
     style="stop-color:#ffffff;stop-opacity:0;" />
</linearGradient>
<linearGradient
   y2="609.50507"
   x2="302.85715"
   y1="366.64789"
   x1="302.85715"
   gradientTransform="matrix(2.774389,0,0,1.969706,-1892.179,-872.8854)"
   gradientUnits="userSpaceOnUse"
   id="linearGradient3618"
   xlink:href="#linearGradient5048"
   inkscape:collect="always" />
<linearGradient
   id="linearGradient3610">
  <stop
     id="stop3612"
     offset="0"
     style="stop-color:black;stop-opacity:0;" />
  <stop
     style="stop-color:black;stop-opacity:1;"
     offset="0.5"
     id="stop3614" />
  <stop
     id="stop3616"
     offset="1"
     style="stop-color:black;stop-opacity:0;" />
</linearGradient>
<radialGradient
   r="117.14286"
   fy="486.64789"
   fx="605.71429"
   cy="486.64789"
   cx="605.71429"
   gradientTransform="matrix(2.774389,0,0,1.969706,-1891.633,-872.8854)"
   gradientUnits="userSpaceOnUse"
   id="radialGradient3608"
   xlink:href="#linearGradient5060"
   inkscape:collect="always" />
<radialGradient
   r="117.14286"
   fy="486.64789"
   fx="605.71429"
   cy="486.64789"
   cx="605.71429"
   gradientTransform="matrix(-2.774389,0,0,1.969706,112.7623,-872.8854)"
   gradientUnits="userSpaceOnUse"
   id="radialGradient3600"
   xlink:href="#linearGradient5060"
   inkscape:collect="always" />
<inkscape:perspective
   id="perspective3597"
   inkscape:persp3d-origin="24 : 16 : 1"
   inkscape:vp_z="48 : 24 : 1"
   inkscape:vp_y="0 : 1000 : 0"
   inkscape:vp_x="0 : 24 : 1"
   sodipodi:type="inkscape:persp3d" />
<linearGradient
   inkscape:collect="always"
   xlink:href="#linearGradient5048"
   id="linearGradient3729"
   gradientUnits="userSpaceOnUse"
   gradientTransform="matrix(2.774389,0,0,1.969706,-1892.179,-872.8854)"
   x1="302.85715"
   y1="366.64789"
   x2="302.85715"
   y2="609.50507" />
<radialGradient
   inkscape:collect="always"
   xlink:href="#linearGradient5060"
   id="radialGradient3731"
   gradientUnits="userSpaceOnUse"
   gradientTransform="matrix(2.774389,0,0,1.969706,-1891.633,-872.8854)"
   cx="605.71429"
   cy="486.64789"
   fx="605.71429"
   fy="486.64789"
   r="117.14286" />
<radialGradient
   inkscape:collect="always"
   xlink:href="#linearGradient5060"
   id="radialGradient3733"
   gradientUnits="userSpaceOnUse"
   gradientTransform="matrix(-2.774389,0,0,1.969706,112.7623,-872.8854)"
   cx="605.71429"
   cy="486.64789"
   fx="605.71429"
   fy="486.64789"
   r="117.14286" />
<radialGradient
   inkscape:collect="always"
   xlink:href="#linearGradient259"
   id="radialGradient3735"
   gradientUnits="userSpaceOnUse"
   gradientTransform="scale(0.960493,1.041132)"
   cx="33.966679"
   cy="35.736916"
   fx="33.966679"
   fy="35.736916"
   r="86.708450" />
<radialGradient
   inkscape:collect="always"
   xlink:href="#linearGradient269"
   id="radialGradient3737"
   gradientUnits="userSpaceOnUse"
   gradientTransform="matrix(0.968273,0,0,1.032767,3.353553,0.646447)"
   cx="8.8244190"
   cy="3.7561285"
   fx="8.8244190"
   fy="3.7561285"
   r="37.751713" />
<radialGradient
   inkscape:collect="always"
   xlink:href="#linearGradient15662"
   id="radialGradient3739"
   gradientUnits="userSpaceOnUse"
   gradientTransform="matrix(0.968273,0,0,1.032767,3.353553,0.646447)"
   cx="8.1435566"
   cy="7.2678967"
   fx="8.1435566"
   fy="7.2678967"
   r="38.158695" />
<radialGradient
   inkscape:collect="always"
   xlink:href="#aigrd2"
   id="radialGradient3741"
   gradientUnits="userSpaceOnUse"
   gradientTransform="matrix(0.229703,0,0,0.229703,4.613529,3.979808)"
   cx="20.8921"
   cy="114.5684"
   fx="20.8921"
   fy="114.5684"
   r="5.256" />
<radialGradient
   inkscape:collect="always"
   xlink:href="#aigrd3"
   id="radialGradient3743"
   gradientUnits="userSpaceOnUse"
   gradientTransform="matrix(0.229703,0,0,0.229703,4.613529,3.979808)"
   cx="20.8921"
   cy="64.5679"
   fx="20.8921"
   fy="64.5679"
   r="5.257" />
<inkscape:perspective
   id="perspective6803"
   inkscape:persp3d-origin="372.04724 : 350.78739 : 1"
   inkscape:vp_z="744.09448 : 526.18109 : 1"
   inkscape:vp_y="0 : 1000 : 0"
   inkscape:vp_x="0 : 526.18109 : 1"
   sodipodi:type="inkscape:persp3d" />

 <radialGradient
   fy="0"
   fx="16"
   r="107"
   cy="0"
   cx="16"
   gradientUnits="userSpaceOnUse"
   id="id1">
   <stop
   id="stop6823"
   style="stop-color: rgb(221, 220, 233);"
   offset="0" />

   <stop
   id="stop6825"
   style="stop-color: rgb(104, 113, 151);"
   offset="1" />

  </radialGradient>

  <linearGradient
   y2="84"
   x2="299"
   y1="84"
   x1="150"
   gradientUnits="userSpaceOnUse"
   id="id0">
   <stop
   id="stop6816"
   style="stop-color: rgb(104, 113, 151);"
   offset="0" />

   <stop
   id="stop6818"
   style="stop-color: rgb(101, 110, 148);"
   offset="0.509804" />

   <stop
   id="stop6820"
   style="stop-color: rgb(0, 0, 0);"
   offset="1" />

  </linearGradient>

  <style
   id="style6813"
   type="text/css">
   
    .str0 {stroke:#FFFFFF;stroke-width:2;stroke-linejoin:round}
    .fil3 {fill:#000000;fill-rule:evenodd}
    .fil2 {fill:#6C7EB7}
    .fil0 {fill:url(#id0)}
    .fil1 {fill:url(#id1)}
   
  </style>

  <inkscape:perspective
   id="perspective6843"
   inkscape:persp3d-origin="150 : 53 : 1"
   inkscape:vp_z="300 : 79.5 : 1"
   inkscape:vp_y="0 : 1000 : 0"
   inkscape:vp_x="0 : 79.5 : 1"
   sodipodi:type="inkscape:persp3d" />
</defs>
  <sodipodi:namedview
     id="base"
     pagecolor="#ffffff"
     bordercolor="#666666"
     borderopacity="1.0"
     inkscape:pageopacity="0.0"
     inkscape:pageshadow="2"
     inkscape:zoom="1.979899"
     inkscape:cx="420.92239"
     inkscape:cy="867.12537"
     inkscape:document-units="px"
     inkscape:current-layer="g2502"
     showgrid="false"
     showguides="true"
     inkscape:guide-bbox="true"
     inkscape:window-width="1280"
     inkscape:window-height="744"
     inkscape:window-x="-4"
     inkscape:window-y="-4" />
  <metadata
     id="metadata2438">
    <rdf:RDF>
      <cc:Work
         rdf:about="">
        <dc:format>image/svg+xml</dc:format>
        <dc:type
           rdf:resource="http://purl.org/dc/dcmitype/StillImage" />
      </cc:Work>
    </rdf:RDF>
  </metadata>
  <g
     inkscape:label="Calque 1"
     inkscape:groupmode="layer"
     id="layer1">
    <g
       transform="translate(-638.35521,229.67784)"
       id="g2502"
       inkscape:label="Calque 1">
      <path
         style="fill:none;fill-rule:evenodd;stroke:#e53b00;stroke-width:3;stroke-linecap:butt;stroke-linejoin:miter;marker-start:none;marker-end:url(#Arrow1Mend);stroke-miterlimit:4;stroke-dasharray:9, 3;stroke-dashoffset:0;stroke-opacity:1"
         d="M 1172.7766,-48.430042 L 1099.7268,-94.617117"
         id="path6731"
         sodipodi:nodetypes="cc" />
      <rect
         style="opacity:1;fill:#cde0ee;fill-opacity:1;stroke:#1f2934;stroke-opacity:1"
         id="rect2539"
         width="97.857765"
         height="61.428288"
         x="508.57144"
         y="181.6479"
         transform="translate(638.35521,-229.67784)"
         ry="10.101525" />
      <g
         transform="matrix(0.177935,0,0,0.177935,1130.1931,-118.67014)"
         id="g4584">
        <path
           id="path4423"
           d="M 322.1723,572.00425 C 321.80563,571.63759 321.50563,570.28759 321.50563,569.00425 L 321.50563,566.67092 L 337.80563,566.67092 C 355.40056,566.67092 356.50563,566.36363 356.50563,561.47092 L 356.50563,558.67092 L 343.97351,558.67092 C 331.12234,558.67092 326.70528,557.72771 323.21597,554.2384 C 321.80072,552.82316 321.50563,550.54631 321.50563,541.04199 L 321.50563,529.55592 L 325.75563,529.86342 L 330.00563,530.17092 L 330.28828,541.41006 C 330.61977,554.5913 329.27302,553.5033 345.75774,553.90737 L 356.50985,554.17092 L 356.61404,544.17092 C 356.77115,529.09113 356.4068,530.21425 361.25563,529.86342 L 365.50563,529.55592 L 365.50563,547.5365 L 365.50563,565.51707 L 362.57638,568.44633 C 360.35358,570.66913 358.36391,571.52968 354.32638,572.01456 C 347.28309,572.8604 323.02067,572.85262 322.1723,572.00425 z M 457.00563,562.67092 C 454.14736,559.68753 454.06949,559.67092 442.94066,559.67092 C 430.52245,559.67092 425.63746,558.32795 422.90905,554.16387 C 420.97113,551.20622 420.05175,529.31344 421.63608,523.85113 C 423.24261,518.31232 428.28343,516.71934 444.28775,516.69288 C 466.35676,516.65639 467.50563,517.72638 467.50563,538.3167 C 467.50563,552.02566 467.41858,552.62092 464.99207,555.50467 L 462.47851,558.49186 L 466.67207,562.08139 L 470.86563,565.67092 L 465.37272,565.67092 C 460.57486,565.67092 459.51612,565.29131 457.00563,562.67092 z M 443.27032,550.14386 L 439.535,546.67092 L 444.72271,546.67092 C 449.21806,546.67092 450.35985,547.10466 453.27794,549.92092 C 456.54226,553.07131 456.6893,553.11143 458.07555,551.22979 C 459.11293,549.82169 459.50563,546.24436 459.50563,538.2023 C 459.50563,522.74672 459.43915,522.67092 445.88318,522.67092 C 440.10321,522.67092 434.50373,523.13675 433.43989,523.7061 C 431.67511,524.65058 431.50563,525.91673 431.50563,538.15641 C 431.50563,553.72806 431.43191,553.60811 441.00563,553.61345 L 447.00563,553.6168 L 443.27032,550.14386 z M 248.50563,539.82591 C 248.50563,521.16968 248.62693,519.87112 250.53049,518.14842 C 253.46825,515.48978 261.81769,515.50339 264.33384,518.17092 C 265.37142,519.27092 269.31208,527.48342 273.09087,536.42092 C 276.86967,545.35842 280.20872,552.67092 280.51099,552.67092 C 280.81327,552.67092 282.36532,549.63342 283.96,545.92092 C 289.76035,532.4174 295.68663,520.1315 297.2156,518.44048 C 299.53523,515.87499 304.59788,515.2648 308.84397,517.03893 L 312.50563,518.56887 L 312.50563,539.11989 L 312.50563,559.67092 L 308.50563,559.67092 L 304.50563,559.67092 L 304.50563,542.22994 C 304.50563,532.6374 304.16813,524.58093 303.75563,524.32668 C 303.34313,524.07243 299.85563,530.87345 296.00563,539.44005 C 287.24731,558.92812 286.69112,559.67092 280.85738,559.67092 C 277.44103,559.67092 275.87631,559.12793 274.37369,557.42092 C 273.28435,556.18342 269.05168,547.74592 264.96775,538.67092 L 257.54242,522.17092 L 257.52403,540.92092 L 257.50563,559.67092 L 253.00563,559.67092 L 248.50563,559.67092 L 248.50563,539.82591 z M 373.50563,556.67092 L 373.50563,553.67092 L 386.94053,553.67092 C 404.05738,553.67092 405.50563,553.16854 405.50563,547.23085 C 405.50563,541.42081 404.08056,540.67092 393.03925,540.67092 C 384.30157,540.67092 378.89955,539.24238 375.29223,535.97779 C 374.00786,534.81546 373.50563,532.8814 373.50563,529.09772 C 373.50563,522.09929 374.07204,520.93277 378.58913,518.62832 C 381.94033,516.91866 384.51937,516.67092 398.96579,516.67092 L 415.50563,516.67092 L 415.50563,519.67092 L 415.50563,522.67092 L 399.61262,522.67092 C 382.28134,522.67092 382.50563,522.59225 382.50563,528.67092 C 382.50563,534.37024 382.99437,534.66892 392.36262,534.69478 C 402.44726,534.72261 407.84135,535.78685 411.42824,538.45636 C 413.57861,540.05676 414.05519,541.30602 414.30476,545.99669 C 414.67765,553.00524 413.46166,555.33361 408.17495,557.73397 C 404.67652,559.32239 401.55175,559.63053 388.75563,559.64896 L 373.50563,559.67092 L 373.50563,556.67092 z M 482.09656,558.19018 C 474.23298,555.38808 474.04704,554.86826 473.67465,534.64517 L 473.34366,516.67092 L 477.86019,516.67092 L 482.37671,516.67092 L 482.69117,534.09017 C 482.86412,543.67076 483.37982,551.88326 483.83716,552.34017 C 484.29449,552.79708 491.60699,553.32381 500.08716,553.51067 L 515.50563,553.85042 L 515.50563,556.76067 L 515.50563,559.67092 L 500.75563,559.62703 C 490.78784,559.59737 484.73824,559.13151 482.09656,558.19018 z M 519.44857,555.24235 C 519.51898,554.04916 517.5875,555.60499 517.4572,554.06398 C 517.38221,553.17704 519.95967,553.60396 520.6764,553.60396 C 521.42059,553.60396 523.15906,553.22468 523.21215,554.26097 C 523.26565,555.30552 521.16217,554.27457 521.18758,555.26453 C 521.22376,556.67458 521.1278,558.20082 521.14685,559.51452 C 521.15365,559.98336 519.31139,560.07159 519.31259,559.49235 C 519.31369,559.00128 519.46753,556.89235 519.44857,555.24235 z M 524.35377,556.69771 C 524.54359,554.73367 525.59054,551.91688 526.12258,553.40478 C 526.6661,554.92475 528.8594,555.42376 529.46086,553.4765 C 530.11034,551.37375 531.53345,556.08518 531.44771,556.93015 C 531.41014,557.3005 531.86782,559.21803 530.77083,559.30738 C 530.47839,559.3312 529.96863,556.14004 529.78381,556.34056 C 529.37235,556.78699 528.98187,557.9191 528.36594,557.99178 C 527.73801,558.06589 527.72252,558.50239 526.51965,556.85737 C 525.2969,555.18517 526.01391,559.74185 525.11951,559.64365 C 524.06752,559.52815 524.15116,558.43615 524.35377,556.69771 z M 521.00563,522.07112 C 513.34099,517.86788 507.50563,512.64896 507.50563,509.99724 C 507.50563,508.55556 513.09476,506.87127 519.25416,506.4568 C 521.59086,506.29957 523.50336,505.85019 523.50416,505.45818 C 523.50677,504.18948 511.58743,496.60997 507.23388,495.1119 C 499.19084,492.34427 498.88159,491.97842 492.31098,477.45782 C 485.31866,462.00527 478.64837,452.27077 471.00563,446.36514 C 463.78459,440.78536 454.7937,436.67265 449.81465,436.67171 C 447.50961,436.67128 445.31789,436.17617 444.94417,435.57148 C 444.57045,434.96679 441.54963,433.18803 438.23124,431.61867 C 433.67747,429.46508 431.74504,429.00761 430.35171,429.7533 C 429.33637,430.29669 428.50563,430.98004 428.50563,431.27185 C 428.50563,432.30308 430.74894,435.97237 433.91628,440.12181 C 435.67969,442.432 438.37813,447.88812 439.91282,452.24653 C 441.44752,456.60495 443.55873,461.09992 444.6044,462.23537 C 446.94254,464.77424 446.98026,466.99397 444.81746,474.77312 C 443.39793,479.87891 443.31462,481.72867 444.29396,486.39767 C 445.47059,492.00731 447.80703,496.67092 449.44079,496.67092 C 449.92976,496.67092 450.6476,494.75842 451.03598,492.42092 C 451.80063,487.8188 454.07703,482.67092 455.34744,482.67092 C 455.78219,482.67092 457.44544,485.48342 459.04355,488.92092 C 460.64167,492.35842 463.2676,497.19592 464.87896,499.67092 L 467.8087,504.17092 L 464.06954,500.67092 C 462.013,498.74592 459.40294,495.37092 458.26942,493.17092 C 456.43957,489.61946 456.12088,489.39519 455.42733,491.17092 C 454.99771,492.27092 454.61457,494.31842 454.57592,495.72092 C 454.43575,500.80608 450.30843,502.21881 446.72767,498.40727 C 441.58461,492.93273 439.9761,481.28351 442.99112,471.34616 C 444.36136,466.82992 444.32871,466.35034 442.48047,463.84616 C 441.39449,462.37478 438.99667,457.32348 437.15196,452.62106 C 435.30726,447.91864 432.15719,441.92167 430.1518,439.29447 C 425.76822,433.55167 425.35582,429.47041 428.92292,427.13316 C 432.0071,425.11232 438.01388,426.53378 444.30576,430.77339 C 447.36271,432.83323 449.82614,433.67092 452.82667,433.67092 C 461.11062,433.67092 478.27706,446.22566 486.68214,458.43124 C 488.29571,460.77441 492.23485,468.42441 495.43579,475.43124 L 501.25566,488.17092 L 509.62439,492.67092 C 518.6576,497.52822 528.53623,506.04796 526.95108,507.61418 C 526.43108,508.12796 523.92046,508.79606 521.37191,509.09884 C 518.82337,509.40161 515.69862,510.0339 514.42804,510.50392 C 511.75785,511.49169 511.57297,511.27748 521.33678,518.50908 C 525.49627,521.58983 531.00142,527.15017 529.31233,526.56459 C 529.14365,526.50611 525.40563,524.48405 521.00563,522.07112 z M 450.50563,448.49966 C 450.50563,447.85547 449.76089,446.50547 448.85064,445.49966 C 447.48523,443.9909 447.45024,443.67092 448.65064,443.67092 C 449.45089,443.67092 450.64563,444.21092 451.30563,444.87092 C 452.75877,446.32406 452.89822,449.67092 451.50563,449.67092 C 450.95563,449.67092 450.50563,449.14385 450.50563,448.49966 z"
           style="fill:#e39404"
           sodipodi:nodetypes="cccccccscccccccccccccsccssssscccccccccssssssccccsssssscccccccssssccccccccccssssscccccssssscccccccccscccccccssssssccssssssssccsssssssssssssssssssscccsssssssssssscccsssssccssssc" />
        <path
           id="path4419"
           d="M 322.1723,572.00425 C 321.80563,571.63759 321.50563,570.28759 321.50563,569.00425 L 321.50563,566.67092 L 337.80563,566.67092 C 355.40056,566.67092 356.50563,566.36363 356.50563,561.47092 L 356.50563,558.67092 L 343.97351,558.67092 C 331.12234,558.67092 326.70528,557.72771 323.21597,554.2384 C 321.80072,552.82316 321.50563,550.54631 321.50563,541.04199 L 321.50563,529.55592 L 325.75563,529.86342 L 330.00563,530.17092 L 330.28828,541.41006 C 330.61977,554.5913 329.27302,553.5033 345.75774,553.90737 L 356.50985,554.17092 L 356.61404,544.17092 C 356.77115,529.09113 356.4068,530.21425 361.25563,529.86342 L 365.50563,529.55592 L 365.50563,547.5365 L 365.50563,565.51707 L 362.57638,568.44633 C 360.35358,570.66913 358.36391,571.52968 354.32638,572.01456 C 347.28309,572.8604 323.02067,572.85262 322.1723,572.00425 z M 248.50563,539.82591 C 248.50563,521.16968 248.62693,519.87112 250.53049,518.14842 C 253.46825,515.48978 261.81769,515.50339 264.33384,518.17092 C 265.37142,519.27092 269.31208,527.48342 273.09087,536.42092 C 276.86967,545.35842 280.20872,552.67092 280.51099,552.67092 C 280.81327,552.67092 282.36532,549.63342 283.96,545.92092 C 289.76035,532.4174 295.68663,520.1315 297.2156,518.44048 C 299.53523,515.87499 304.59788,515.2648 308.84397,517.03893 L 312.50563,518.56887 L 312.50563,539.11989 L 312.50563,559.67092 L 308.50563,559.67092 L 304.50563,559.67092 L 304.50563,542.22994 C 304.50563,532.6374 304.16813,524.58093 303.75563,524.32668 C 303.34313,524.07243 299.85563,530.87345 296.00563,539.44005 C 287.24731,558.92812 286.69112,559.67092 280.85738,559.67092 C 277.44103,559.67092 275.87631,559.12793 274.37369,557.42092 C 273.28435,556.18342 269.05168,547.74592 264.96775,538.67092 L 257.54242,522.17092 L 257.52403,540.92092 L 257.50563,559.67092 L 253.00563,559.67092 L 248.50563,559.67092 L 248.50563,539.82591 z M 521.00563,522.07112 C 513.34099,517.86788 507.50563,512.64896 507.50563,509.99724 C 507.50563,508.55556 513.09476,506.87127 519.25416,506.4568 C 521.59086,506.29957 523.50336,505.85019 523.50416,505.45818 C 523.50677,504.18948 511.58743,496.60997 507.23388,495.1119 C 499.19084,492.34427 498.88159,491.97842 492.31098,477.45782 C 485.31866,462.00527 478.64837,452.27077 471.00563,446.36514 C 463.78459,440.78536 454.7937,436.67265 449.81465,436.67171 C 447.50961,436.67128 445.31789,436.17617 444.94417,435.57148 C 444.57045,434.96679 441.54963,433.18803 438.23124,431.61867 C 433.67747,429.46508 431.74504,429.00761 430.35171,429.7533 C 429.33637,430.29669 428.50563,430.98004 428.50563,431.27185 C 428.50563,432.30308 430.74894,435.97237 433.91628,440.12181 C 435.67969,442.432 438.37813,447.88812 439.91282,452.24653 C 441.44752,456.60495 443.55873,461.09992 444.6044,462.23537 C 446.94254,464.77424 446.98026,466.99397 444.81746,474.77312 C 443.39793,479.87891 443.31462,481.72867 444.29396,486.39767 C 445.47059,492.00731 447.80703,496.67092 449.44079,496.67092 C 449.92976,496.67092 450.6476,494.75842 451.03598,492.42092 C 451.80063,487.8188 454.07703,482.67092 455.34744,482.67092 C 455.78219,482.67092 457.44544,485.48342 459.04355,488.92092 C 460.64167,492.35842 463.2676,497.19592 464.87896,499.67092 L 467.8087,504.17092 L 464.06954,500.67092 C 462.013,498.74592 459.40294,495.37092 458.26942,493.17092 C 456.43957,489.61946 456.12088,489.39519 455.42733,491.17092 C 454.99771,492.27092 454.61457,494.31842 454.57592,495.72092 C 454.43575,500.80608 450.30843,502.21881 446.72767,498.40727 C 441.58461,492.93273 439.9761,481.28351 442.99112,471.34616 C 444.36136,466.82992 444.32871,466.35034 442.48047,463.84616 C 441.39449,462.37478 438.99667,457.32348 437.15196,452.62106 C 435.30726,447.91864 432.15719,441.92167 430.1518,439.29447 C 425.76822,433.55167 425.35582,429.47041 428.92292,427.13316 C 432.0071,425.11232 438.01388,426.53378 444.30576,430.77339 C 447.36271,432.83323 449.82614,433.67092 452.82667,433.67092 C 461.11062,433.67092 478.27706,446.22566 486.68214,458.43124 C 488.29571,460.77441 492.23485,468.42441 495.43579,475.43124 L 501.25566,488.17092 L 509.62439,492.67092 C 518.6576,497.52822 528.53623,506.04796 526.95108,507.61418 C 526.43108,508.12796 523.92046,508.79606 521.37191,509.09884 C 518.82337,509.40161 515.69862,510.0339 514.42804,510.50392 C 511.75785,511.49169 511.57297,511.27748 521.33678,518.50908 C 525.49627,521.58983 531.00142,527.15017 529.31233,526.56459 C 529.14365,526.50611 525.40563,524.48405 521.00563,522.07112 z M 450.50563,448.49966 C 450.50563,447.85547 449.76089,446.50547 448.85064,445.49966 C 447.48523,443.9909 447.45024,443.67092 448.65064,443.67092 C 449.45089,443.67092 450.64563,444.21092 451.30563,444.87092 C 452.75877,446.32406 452.89822,449.67092 451.50563,449.67092 C 450.95563,449.67092 450.50563,449.14385 450.50563,448.49966 z"
           style="fill:#066688" />
      </g>
      <rect
         style="opacity:1;fill:#cde0ee;fill-opacity:1;stroke:#1f2934;stroke-opacity:1"
         id="rect3335"
         width="139.64352"
         height="61.428288"
         x="778.98615"
         y="-48.23901"
         ry="8.0812206" />
      <flowRoot
         xml:space="preserve"
         id="flowRoot3337"
         style="fill:black;stroke:none;stroke-opacity:1;stroke-width:1px;stroke-linejoin:miter;stroke-linecap:butt;fill-opacity:1;font-family:Bitstream Vera Sans;font-style:normal;font-weight:normal;font-size:12px"><flowRegion
           id="flowRegion3339"><rect
             id="rect3341"
             width="74.285713"
             height="35.714287"
             x="269.28571"
             y="195.21933" /></flowRegion><flowPara
           id="flowPara3343"></flowPara></flowRoot>      <text
         xml:space="preserve"
         style="font-size:12px;font-style:normal;font-weight:normal;text-align:center;text-anchor:middle;fill:#3388ca;fill-opacity:1;stroke:none;stroke-width:1px;stroke-linecap:butt;stroke-linejoin:miter;stroke-opacity:1;font-family:Bitstream Vera Sans"
         x="869.72607"
         y="-22.795355"
         id="text3345"><tspan
           sodipodi:role="line"
           id="tspan3347"
           x="869.72607"
           y="-22.795355"
           style="font-size:16px;font-style:normal;font-variant:normal;font-weight:normal;font-stretch:normal;text-align:center;text-anchor:middle;font-family:Trebuchet MS;-inkscape-font-specification:Trebuchet MS">Couche</tspan><tspan
           sodipodi:role="line"
           x="869.72607"
           y="-2.7953548"
           style="font-size:16px;font-style:normal;font-variant:normal;font-weight:normal;font-stretch:normal;text-align:center;text-anchor:middle;font-family:Trebuchet MS;-inkscape-font-specification:Trebuchet MS"
           id="tspan3357">application</tspan></text>
      <flowRoot
         xml:space="preserve"
         id="flowRoot3349"
         style="fill:black;stroke:none;stroke-opacity:1;stroke-width:1px;stroke-linejoin:miter;stroke-linecap:butt;fill-opacity:1;font-family:Bitstream Vera Sans;font-style:normal;font-weight:normal;font-size:12px"><flowRegion
           id="flowRegion3351"><rect
             id="rect3353"
             width="5.7142859"
             height="19.285715"
             x="261.42856"
             y="209.50504" /></flowRegion><flowPara
           id="flowPara3355"></flowPara></flowRoot>      <text
         xml:space="preserve"
         style="font-size:12px;font-style:normal;font-weight:normal;text-align:center;text-anchor:middle;fill:#3388ca;fill-opacity:1;stroke:none;stroke-width:1px;stroke-linecap:butt;stroke-linejoin:miter;stroke-opacity:1;font-family:Bitstream Vera Sans"
         x="1198.1985"
         y="0.73889792"
         id="text3359"><tspan
           sodipodi:role="line"
           x="1198.1985"
           y="0.73889792"
           style="font-size:16px;font-style:normal;font-variant:normal;font-weight:normal;font-stretch:normal;text-align:center;text-anchor:middle;font-family:Trebuchet MS;-inkscape-font-specification:Trebuchet MS"
           id="tspan3363">SGBD</tspan></text>
      <path
         style="fill:none;fill-rule:evenodd;stroke:#e53b00;stroke-width:3;stroke-linecap:butt;stroke-linejoin:miter;marker-start:none;marker-end:url(#Arrow1Mend);stroke-miterlimit:4;stroke-dasharray:9, 3;stroke-dashoffset:0;stroke-opacity:1"
         d="M 996.05951,-96.842869 L 923.05164,-30.172801"
         id="path6725"
         sodipodi:nodetypes="cc" />
      <rect
         style="opacity:1;fill:#cde0ee;fill-opacity:1;stroke:#1f2934;stroke-opacity:1"
         id="rect3367"
         width="97.857765"
         height="61.428288"
         x="996.62549"
         y="-119.40022"
         ry="9.0913725" />
      <g
         id="g3676"
         transform="translate(1041.4303,-112.84148)">
        <g
           inkscape:label="Shadow"
           id="g3678">
          <g
             id="g3680"
             transform="matrix(2.105461e-2,0,0,2.086758e-2,42.85172,41.1536)"
             style="display:inline">
            <rect
               y="-150.69685"
               x="-1559.2523"
               height="478.35718"
               width="1339.6335"
               id="rect3682"
               style="opacity:0.40206185;fill:url(#linearGradient3729);fill-opacity:1;fill-rule:nonzero;stroke:none;stroke-width:1;stroke-linecap:round;stroke-linejoin:miter;marker:none;marker-start:none;marker-mid:none;marker-end:none;stroke-miterlimit:4;stroke-dasharray:none;stroke-dashoffset:0;stroke-opacity:1;visibility:visible;display:inline;overflow:visible" />
            <path
               sodipodi:nodetypes="cccc"
               id="path3684"
               d="M -219.61876,-150.68038 C -219.61876,-150.68038 -219.61876,327.65041 -219.61876,327.65041 C -76.744594,328.55086 125.78146,220.48075 125.78138,88.454235 C 125.78138,-43.572302 -33.655436,-150.68036 -219.61876,-150.68038 z"
               style="opacity:0.40206185;fill:url(#radialGradient3731);fill-opacity:1;fill-rule:nonzero;stroke:none;stroke-width:1;stroke-linecap:round;stroke-linejoin:miter;marker:none;marker-start:none;marker-mid:none;marker-end:none;stroke-miterlimit:4;stroke-dasharray:none;stroke-dashoffset:0;stroke-opacity:1;visibility:visible;display:inline;overflow:visible" />
            <path
               style="opacity:0.40206185;fill:url(#radialGradient3733);fill-opacity:1;fill-rule:nonzero;stroke:none;stroke-width:1;stroke-linecap:round;stroke-linejoin:miter;marker:none;marker-start:none;marker-mid:none;marker-end:none;stroke-miterlimit:4;stroke-dasharray:none;stroke-dashoffset:0;stroke-opacity:1;visibility:visible;display:inline;overflow:visible"
               d="M -1559.2523,-150.68038 C -1559.2523,-150.68038 -1559.2523,327.65041 -1559.2523,327.65041 C -1702.1265,328.55086 -1904.6525,220.48075 -1904.6525,88.454235 C -1904.6525,-43.572302 -1745.2157,-150.68036 -1559.2523,-150.68038 z"
               id="path3686"
               sodipodi:nodetypes="cccc" />
          </g>
        </g>
        <g
           id="g3688"
           inkscape:label="Base"
           style="display:inline">
          <rect
             ry="1.1490486"
             y="3.6464462"
             x="6.6035528"
             height="40.920494"
             width="34.875"
             id="rect3690"
             style="fill:url(#radialGradient3735);fill-opacity:1;fill-rule:nonzero;stroke:url(#radialGradient3737);stroke-width:1;stroke-linecap:round;stroke-linejoin:round;marker:none;marker-start:none;marker-mid:none;marker-end:none;stroke-miterlimit:4;stroke-dashoffset:0;stroke-opacity:1;visibility:visible;display:block;overflow:visible" />
          <rect
             rx="0.14904857"
             ry="0.14904857"
             y="4.5839462"
             x="7.6660538"
             height="38.946384"
             width="32.775887"
             id="rect3692"
             style="fill:none;fill-opacity:1;fill-rule:nonzero;stroke:url(#radialGradient3739);stroke-width:1;stroke-linecap:round;stroke-linejoin:round;marker:none;marker-start:none;marker-mid:none;marker-end:none;stroke-miterlimit:4;stroke-dashoffset:0;stroke-opacity:1;visibility:visible;display:block;overflow:visible" />
          <g
             id="g3694"
             transform="translate(0.646447,-3.798933e-2)">
            <g
               transform="matrix(0.229703,0,0,0.229703,4.967081,4.244972)"
               style="fill:#ffffff;fill-opacity:1;fill-rule:nonzero;stroke:#000000;stroke-miterlimit:4"
               id="g3696">
              <radialGradient
                 gradientUnits="userSpaceOnUse"
                 fy="114.5684"
                 fx="20.892099"
                 r="5.256"
                 cy="114.5684"
                 cx="20.892099"
                 id="radialGradient3698">
                <stop
                   id="stop3700"
                   style="stop-color:#F0F0F0"
                   offset="0" />
                <stop
                   id="stop3702"
                   style="stop-color:#474747"
                   offset="1" />
              </radialGradient>
              <path
                 id="path3704"
                 d="M 23.428,113.07 C 23.428,115.043 21.828,116.642 19.855,116.642 C 17.881,116.642 16.282,115.042 16.282,113.07 C 16.282,111.096 17.882,109.497 19.855,109.497 C 21.828,109.497 23.428,111.097 23.428,113.07 z"
                 style="stroke:none" />
              <radialGradient
                 gradientUnits="userSpaceOnUse"
                 fy="64.567902"
                 fx="20.892099"
                 r="5.257"
                 cy="64.567902"
                 cx="20.892099"
                 id="radialGradient3706">
                <stop
                   id="stop3708"
                   style="stop-color:#F0F0F0"
                   offset="0" />
                <stop
                   id="stop3710"
                   style="stop-color:#474747"
                   offset="1" />
              </radialGradient>
              <path
                 id="path3712"
                 d="M 23.428,63.07 C 23.428,65.043 21.828,66.643 19.855,66.643 C 17.881,66.643 16.282,65.043 16.282,63.07 C 16.282,61.096 17.882,59.497 19.855,59.497 C 21.828,59.497 23.428,61.097 23.428,63.07 z"
                 style="stroke:none" />
            </g>
            <path
               id="path3714"
               d="M 9.9950109,29.952326 C 9.9950109,30.40553 9.6274861,30.772825 9.1742821,30.772825 C 8.7208483,30.772825 8.3535532,30.405301 8.3535532,29.952326 C 8.3535532,29.498892 8.721078,29.131597 9.1742821,29.131597 C 9.6274861,29.131597 9.9950109,29.499122 9.9950109,29.952326 z"
               style="fill:url(#radialGradient3741);fill-rule:nonzero;stroke:none;stroke-miterlimit:4" />
            <path
               id="path3716"
               d="M 9.9950109,18.467176 C 9.9950109,18.92038 9.6274861,19.287905 9.1742821,19.287905 C 8.7208483,19.287905 8.3535532,18.92038 8.3535532,18.467176 C 8.3535532,18.013742 8.721078,17.646447 9.1742821,17.646447 C 9.6274861,17.646447 9.9950109,18.013972 9.9950109,18.467176 z"
               style="fill:url(#radialGradient3743);fill-rule:nonzero;stroke:none;stroke-miterlimit:4" />
          </g>
          <path
             sodipodi:nodetypes="cc"
             id="path3718"
             d="M 11.505723,5.4942766 L 11.505723,43.400869"
             style="fill:none;fill-opacity:0.75;fill-rule:evenodd;stroke:#000000;stroke-width:0.98855311;stroke-linecap:butt;stroke-linejoin:miter;stroke-miterlimit:4;stroke-opacity:0.01754384" />
          <path
             sodipodi:nodetypes="cc"
             id="path3720"
             d="M 12.5,5.0205154 L 12.5,43.038228"
             style="fill:none;fill-opacity:0.75;fill-rule:evenodd;stroke:#ffffff;stroke-width:1;stroke-linecap:butt;stroke-linejoin:miter;stroke-miterlimit:4;stroke-opacity:0.20467828" />
        </g>
        <g
           style="display:inline"
           inkscape:label="Text"
           id="g3722">
          <g
             transform="matrix(0.703833,0,0,0.703833,-1.924835,14.32997)"
             id="g2186">
            <path
               style="fill:url(#linearGradient2193);fill-rule:nonzero;stroke:#3e3e3e;stroke-width:1.42079258;stroke-linecap:round;stroke-linejoin:round;stroke-miterlimit:4;stroke-dasharray:none;stroke-opacity:1"
               d="M 50.204582,47.404518 L 30.293968,27.493904 L 50.204582,7.5832887 L 70.115196,27.493904 L 50.204582,47.404518 L 50.204582,47.404518 z"
               id="path53304" />
            <path
               style="opacity:0.5;fill:#ffffff;fill-rule:nonzero;stroke:none;stroke-miterlimit:4"
               d="M 34.844554,31.353332 L 35.583003,30.329148 C 36.219753,30.59764 36.883622,30.814217 37.569187,30.974033 L 37.563375,32.550891 C 37.991103,32.639226 38.426385,32.707027 38.86748,32.755262 L 39.349254,31.253373 C 39.693295,31.28185 40.041018,31.29754 40.392615,31.29754 C 40.743824,31.29754 41.091739,31.282043 41.435781,31.253373 L 41.917556,32.755262 C 42.358844,32.707027 42.793932,32.639226 43.22166,32.550891 L 43.215655,30.97384 C 43.901413,30.814217 44.565088,30.59764 45.201837,30.329148 L 46.124317,31.60865 C 46.526668,31.426556 46.918558,31.226059 47.299212,31.008128 L 46.806395,29.510112 C 47.403625,29.147862 47.968118,28.736793 48.493866,28.28214 L 49.766007,29.213919 C 50.091645,28.917338 50.403336,28.605647 50.699723,28.280009 L 49.768138,27.008062 C 50.222985,26.482314 50.634054,25.918015 50.996304,25.320397 L 52.494319,25.813408 C 52.712251,25.43256 52.912942,25.040476 53.094648,24.63832 L 51.81534,23.716033 C 52.083832,23.079284 52.300408,22.415415 52.460419,21.729657 L 54.037082,21.735468 C 54.125417,21.307741 54.193219,20.872458 54.24126,20.43117 L 52.739565,19.949396 C 52.768429,19.605548 52.783732,19.257632 52.783732,18.906229 C 52.783732,18.554826 52.768041,18.207104 52.739565,17.862868 L 54.24126,17.381094 C 54.193413,16.94 54.125223,16.504911 54.037276,16.07699 L 52.460225,16.082995 C 52.300408,15.397236 52.083832,14.733368 51.815534,14.096814 L 53.094842,13.174525 C 52.913135,12.772174 52.712251,12.380283 52.494707,11.999435 L 50.996498,12.492446 C 50.634247,11.895022 50.223179,11.330723 49.768525,10.805169 L 50.700111,9.5330282 C 50.421739,9.2271488 50.129033,8.9350234 49.824703,8.6549084 L 30.985708,27.494098 L 31.99265,28.50104 L 32.291362,28.282334 C 32.81711,28.736987 33.381408,29.148056 33.978832,29.510306 L 33.736879,30.245463 L 34.844941,31.353525 L 34.844554,31.353332 z"
               id="path53361" />
            <path
               style="opacity:0.5;fill:#ffffff;fill-rule:nonzero;stroke:none;stroke-miterlimit:4"
               d="M 54.367757,36.399276 C 54.367757,29.914594 58.60164,24.419807 64.454997,22.525253 L 62.228025,20.298086 C 62.211171,20.305061 62.194125,20.311066 62.177465,20.318233 L 61.995952,20.066401 L 60.583948,18.654397 C 60.12077,18.873297 59.667278,19.108857 59.224634,19.362045 L 59.918723,21.471238 C 59.077409,21.980907 58.282975,22.559928 57.542976,23.19997 L 55.751866,21.888311 C 55.293145,22.305771 54.854569,22.744347 54.437302,23.202876 L 55.748767,24.99379 C 55.108726,25.733985 54.529899,26.528418 54.020036,27.369538 L 51.910649,26.675449 C 51.603995,27.211852 51.321556,27.763753 51.065655,28.330181 L 52.866837,29.628474 C 52.488895,30.524803 52.183985,31.459488 51.959079,32.424975 L 49.73908,32.416451 C 49.614908,33.018717 49.519211,33.631639 49.451604,34.252502 L 51.566027,34.9309 C 51.525734,35.415193 51.504036,35.90491 51.504036,36.39947 C 51.504036,36.894223 51.525734,37.38394 51.566027,37.868233 L 49.451604,38.546049 C 49.519211,39.1673 49.614908,39.780028 49.739274,40.382294 L 51.959079,40.373964 C 52.183985,41.339451 52.488895,42.274136 52.866837,43.170466 L 51.065655,44.468952 C 51.208037,44.783742 51.359524,45.093883 51.517791,45.399375 L 55.321814,41.595739 C 54.705794,39.981494 54.367564,38.229903 54.367564,36.39947 L 54.367757,36.399276 z"
               id="path53363" />
            <path
               id="path3078"
               d="M 50.204564,45.706929 L 31.991529,27.493894 L 50.204564,9.2808575 L 68.417599,27.493894 L 50.204564,45.706929 L 50.204564,45.706929 z"
               style="opacity:0.52046784;fill:none;fill-rule:nonzero;stroke:url(#linearGradient3088);stroke-width:1.42079163;stroke-linecap:butt;stroke-linejoin:miter;stroke-miterlimit:4;stroke-dasharray:none;stroke-opacity:1" />
          </g>
        </g>
      </g>
      <text
         xml:space="preserve"
         style="font-size:12px;font-style:normal;font-weight:normal;text-align:center;text-anchor:middle;fill:#3388ca;fill-opacity:1;stroke:none;stroke-width:1px;stroke-linecap:butt;stroke-linejoin:miter;stroke-opacity:1;font-family:Bitstream Vera Sans"
         x="1020.5193"
         y="-84.326729"
         id="text3745"><tspan
           sodipodi:role="line"
           x="1020.5193"
           y="-84.326729"
           style="font-size:16px;font-style:normal;font-variant:normal;font-weight:normal;font-stretch:normal;text-align:center;text-anchor:middle;font-family:Trebuchet MS;-inkscape-font-specification:Trebuchet MS"
           id="tspan3749">Cache</tspan></text>
      <path
         style="fill:none;fill-rule:evenodd;stroke:#e53b00;stroke-width:3;stroke-linecap:butt;stroke-linejoin:miter;marker-start:none;marker-end:url(#Arrow1Mend);stroke-miterlimit:4;stroke-dasharray:9, 3;stroke-dashoffset:0;stroke-opacity:1"
         d="M 1146.9266,5.8522192 L 924.6945,5.8522192"
         id="path3773"
         sodipodi:nodetypes="cc" />
      <text
         xml:space="preserve"
         style="font-size:12px;font-style:normal;font-weight:normal;fill:#000000;fill-opacity:1;stroke:none;stroke-width:1px;stroke-linecap:butt;stroke-linejoin:miter;stroke-opacity:1;font-family:Bitstream Vera Sans"
         x="928.35516"
         y="-4.4523554"
         id="text6721"><tspan
           sodipodi:role="line"
           id="tspan6723"
           x="928.35516"
           y="-4.4523554"
           style="font-style:normal;font-variant:normal;font-weight:normal;font-stretch:normal;fill:#333333;fill-opacity:1;font-family:Trebuchet MS;-inkscape-font-specification:Trebuchet MS">Requêtes spécifiques ou peu fréquentes</tspan></text>
      <text
         xml:space="preserve"
         style="font-size:12px;font-style:normal;font-weight:normal;fill:#000000;fill-opacity:1;stroke:none;stroke-width:1px;stroke-linecap:butt;stroke-linejoin:miter;stroke-opacity:1;font-family:Bitstream Vera Sans"
         x="857.49109"
         y="-82.631393"
         id="text6727"><tspan
           sodipodi:role="line"
           id="tspan6729"
           x="857.49109"
           y="-82.631393"
           style="font-style:normal;font-variant:normal;font-weight:normal;font-stretch:normal;fill:#333333;fill-opacity:1;font-family:Trebuchet MS;-inkscape-font-specification:Trebuchet MS">Requêtes fréquentes</tspan></text>
      <text
         xml:space="preserve"
         style="font-size:12px;font-style:normal;font-weight:normal;text-align:end;text-anchor:end;fill:#000000;fill-opacity:1;stroke:none;stroke-width:1px;stroke-linecap:butt;stroke-linejoin:miter;stroke-opacity:1;font-family:Bitstream Vera Sans"
         x="1230.9264"
         y="-81.377419"
         id="text6733"><tspan
           sodipodi:role="line"
           id="tspan6735"
           x="1230.9264"
           y="-81.377419"
           style="font-style:normal;font-variant:normal;font-weight:normal;font-stretch:normal;text-align:end;text-anchor:end;fill:#333333;fill-opacity:1;font-family:Trebuchet MS;-inkscape-font-specification:Trebuchet MS">Duplication des</tspan><tspan
           sodipodi:role="line"
           x="1230.9264"
           y="-66.377419"
           style="font-style:normal;font-variant:normal;font-weight:normal;font-stretch:normal;text-align:end;text-anchor:end;fill:#333333;fill-opacity:1;font-family:Trebuchet MS;-inkscape-font-specification:Trebuchet MS"
           id="tspan6737">données</tspan></text>
      <g
         id="Layer 1"
         transform="matrix(0.1575091,0,0,0.1575091,782.76915,-30.987827)">
  <path
   id="path6828"
   d="M 150,158 C 232,158 299,123 299,80 C 299,49 264,22 214,9 L 150,158 z"
   class="fil0"
   style="fill:url(#id0)" />

  <path
   id="path6830"
   d="M 150,158 C 117,158 86,152 61,142 C 25,128 1,105 1,80 C 1,37 68,2 150,2 C 173,2 195,4 214,9 L 150,158 z"
   class="fil1"
   style="fill:url(#id1)" />

  <ellipse
   id="ellipse6832"
   ry="73"
   rx="143"
   cy="80"
   cx="150"
   class="fil2"
   sodipodi:cx="150"
   sodipodi:cy="80"
   sodipodi:rx="143"
   sodipodi:ry="73"
   style="fill:#6c7eb7" />

  <path
   id="path6834"
   d="M 116,104 L 132,23 L 151,23 L 147,44 L 165,44 C 181,45 187,53 185,63 L 178,104 L 158,104 L 165,67 C 166,62 166,59 159,59 L 144,59 L 135,104 L 116,104 z"
   class="fil3 str0"
   style="fill:#000000;fill-rule:evenodd;stroke:#ffffff;stroke-width:2;stroke-linejoin:round" />

  <path
   id="path6836"
   d="M 45,125 L 61,44 L 98,44 C 114,45 122,53 122,67 C 122,91 103,105 86,104 L 68,104 L 64,125 L 45,125 z M 72,89 L 77,59 L 90,59 C 97,59 102,62 102,68 C 101,85 93,88 84,89 L 72,89 z"
   class="fil3 str0"
   style="fill:#000000;fill-rule:evenodd;stroke:#ffffff;stroke-width:2;stroke-linejoin:round" />

  <path
   id="path6838"
   d="M 179,125 L 194,44 L 232,44 C 248,45 256,53 256,67 C 255,91 236,105 219,104 L 202,104 L 198,125 L 179,125 z M 205,89 L 211,59 L 223,59 C 231,59 236,62 235,68 C 235,85 227,88 217,89 L 205,89 z"
   class="fil3 str0"
   style="fill:#000000;fill-rule:evenodd;stroke:#ffffff;stroke-width:2;stroke-linejoin:round" />

 </g>
    </g>
  </g>
</svg>
