<?xml version="1.0" encoding="UTF-8" standalone="no"?>
<!-- Created with Inkscape (http://www.inkscape.org/) -->
<svg
   xmlns:dc="http://purl.org/dc/elements/1.1/"
   xmlns:cc="http://web.resource.org/cc/"
   xmlns:rdf="http://www.w3.org/1999/02/22-rdf-syntax-ns#"
   xmlns:svg="http://www.w3.org/2000/svg"
   xmlns="http://www.w3.org/2000/svg"
   xmlns:sodipodi="http://sodipodi.sourceforge.net/DTD/sodipodi-0.dtd"
   xmlns:inkscape="http://www.inkscape.org/namespaces/inkscape"
   width="621"
   height="197.07146"
   id="svg2"
   sodipodi:version="0.32"
   inkscape:version="0.45.1"
   sodipodi:docbase="D:\Documents\Documents PHPBoost\schémas documentation"
   sodipodi:docname="intérêtClasseSQL.svg"
   inkscape:output_extension="org.inkscape.output.svg.inkscape"
   inkscape:export-filename="D:\Documents\Documents PHPBoost\schémas documentation\intérêtClasseSql.png"
   inkscape:export-xdpi="84.057968"
   inkscape:export-ydpi="84.057968"
   version="1.0">
  <defs
     id="defs4">
    <marker
       inkscape:stockid="Arrow1Send"
       orient="auto"
       refY="0"
       refX="0"
       id="Arrow1Send"
       style="overflow:visible">
      <path
         id="path4209"
         d="M 0,0 L 5,-5 L -12.5,0 L 5,5 L 0,0 z "
         style="fill-rule:evenodd;stroke:#000000;stroke-width:1pt;marker-start:none"
         transform="matrix(-0.2,0,0,-0.2,-1.2,0)" />
    </marker>
    <marker
       inkscape:stockid="Arrow1Sstart"
       orient="auto"
       refY="0"
       refX="0"
       id="Arrow1Sstart"
       style="overflow:visible">
      <path
         id="path4206"
         d="M 0,0 L 5,-5 L -12.5,0 L 5,5 L 0,0 z "
         style="fill-rule:evenodd;stroke:#000000;stroke-width:1pt;marker-start:none"
         transform="matrix(0.2,0,0,0.2,1.2,0)" />
    </marker>
    <marker
       inkscape:stockid="Arrow1Mstart"
       orient="auto"
       refY="0"
       refX="0"
       id="Arrow1Mstart"
       style="overflow:visible">
      <path
         id="path4200"
         d="M 0,0 L 5,-5 L -12.5,0 L 5,5 L 0,0 z "
         style="fill-rule:evenodd;stroke:#000000;stroke-width:1pt;marker-start:none"
         transform="matrix(0.4,0,0,0.4,4,0)" />
    </marker>
    <marker
       inkscape:stockid="Arrow1Lstart"
       orient="auto"
       refY="0"
       refX="0"
       id="Arrow1Lstart"
       style="overflow:visible">
      <path
         id="path4194"
         d="M 0,0 L 5,-5 L -12.5,0 L 5,5 L 0,0 z "
         style="fill-rule:evenodd;stroke:#000000;stroke-width:1pt;marker-start:none"
         transform="matrix(0.8,0,0,0.8,10,0)" />
    </marker>
  </defs>
  <sodipodi:namedview
     id="base"
     pagecolor="#ffffff"
     bordercolor="#666666"
     borderopacity="1.0"
     inkscape:pageopacity="0.0"
     inkscape:pageshadow="2"
     inkscape:zoom="0.9899495"
     inkscape:cx="443.11721"
     inkscape:cy="78.098849"
     inkscape:document-units="px"
     inkscape:current-layer="layer1"
     inkscape:window-width="1280"
     inkscape:window-height="744"
     inkscape:window-x="-4"
     inkscape:window-y="-4" />
  <metadata
     id="metadata7">
    <rdf:RDF>
      <cc:Work
         rdf:about="">
        <dc:format>image/svg+xml</dc:format>
        <dc:type
           rdf:resource="http://purl.org/dc/dcmitype/StillImage" />
      </cc:Work>
    </rdf:RDF>
  </metadata>
  <g
     inkscape:label="Calque 1"
     inkscape:groupmode="layer"
     id="layer1"
     transform="translate(-85.214279,-286.86218)">
    <rect
       style="fill:#e3f1f9;fill-opacity:1;stroke:#000000;stroke-width:1;stroke-miterlimit:4;stroke-dasharray:none;stroke-dashoffset:0;stroke-opacity:1"
       id="rect2160"
       width="148.57143"
       height="195"
       x="85.714279"
       y="288.07648" />
    <flowRoot
       xml:space="preserve"
       id="flowRoot3134"
       transform="translate(12.142857,76.428571)"><flowRegion
         id="flowRegion3136"><rect
           id="rect3138"
           width="148.57143"
           height="184.28572"
           x="84.285713"
           y="289.50504" /></flowRegion><flowPara
         id="flowPara3140"
         style="font-size:24px">Script PHP</flowPara></flowRoot>    <rect
       style="fill:#e3f1f9;fill-opacity:1;stroke:#000000;stroke-width:1;stroke-miterlimit:4;stroke-dasharray:none;stroke-dashoffset:0;stroke-opacity:1"
       id="rect3144"
       width="148.57143"
       height="195"
       x="321.07141"
       y="288.07648" />
    <flowRoot
       xml:space="preserve"
       id="flowRoot3146"
       transform="translate(3.5714288,47.857143)"><flowRegion
         id="flowRegion3148"><rect
           id="rect3150"
           width="140.71429"
           height="172.14285"
           x="320"
           y="288.07648" /></flowRegion><flowPara
         id="flowPara3152"
         style="font-size:24px;text-align:center;text-anchor:middle">Objet <flowSpan
   style="font-style:italic"
   id="flowSpan2199">$sql</flowSpan> de type classe Sql</flowPara></flowRoot>    <rect
       style="fill:#e3f1f9;fill-opacity:1;stroke:#000000;stroke-width:1;stroke-miterlimit:4;stroke-dasharray:none;stroke-dashoffset:0;stroke-opacity:1"
       id="rect3154"
       width="148.57143"
       height="40.714283"
       x="557.14288"
       y="287.36218" />
    <rect
       style="fill:#e3f1f9;fill-opacity:1;stroke:#000000;stroke-width:1;stroke-miterlimit:4;stroke-dasharray:none;stroke-dashoffset:0;stroke-opacity:1"
       id="rect3164"
       width="148.57143"
       height="40.714283"
       x="557.18622"
       y="339.14792" />
    <rect
       style="fill:#e3f1f9;fill-opacity:1;stroke:#000000;stroke-width:1;stroke-miterlimit:4;stroke-dasharray:none;stroke-dashoffset:0;stroke-opacity:1"
       id="rect3174"
       width="148.57143"
       height="40.714283"
       x="557.14288"
       y="391.29074" />
    <rect
       style="fill:#e3f1f9;fill-opacity:1;stroke:#000000;stroke-width:1;stroke-miterlimit:4;stroke-dasharray:none;stroke-dashoffset:0;stroke-opacity:1"
       id="rect3192"
       width="148.57143"
       height="40.714283"
       x="557.14282"
       y="442.71936" />
    <flowRoot
       xml:space="preserve"
       id="flowRoot3194"
       style="font-size:18px;text-align:center;text-anchor:middle"
       transform="translate(1.4285166,157.5)"><flowRegion
         id="flowRegion3196"><rect
           id="rect3198"
           width="120"
           height="23.571428"
           x="571.42859"
           y="296.64789"
           style="font-size:18px;text-align:center;text-anchor:middle" /></flowRegion><flowPara
         id="flowPara3200">Autres...</flowPara></flowRoot>    <path
       style="fill:none;fill-rule:evenodd;stroke:#000000;stroke-width:5;stroke-linecap:butt;stroke-linejoin:miter;marker-start:url(#Arrow1Sstart);marker-mid:none;marker-end:url(#Arrow1Send);stroke-miterlimit:4;stroke-dasharray:none;stroke-opacity:1"
       d="M 247.85714,380.93361 L 304.28571,380.93361"
       id="path3220" />
    <g
       id="g4584"
       transform="matrix(0.2618153,0,0,0.2618153,527.64026,177.07246)">
      <path
         sodipodi:nodetypes="cccccccscccccccccccccsccssssscccccccccssssssccccsssssscccccccssssccccccccccssssscccccssssscccccccccscccccccssssssccssssssssccsssssssssssssssssssscccsssssssssssscccsssssccssssc"
         style="fill:#e39404"
         d="M 322.1723,572.00425 C 321.80563,571.63759 321.50563,570.28759 321.50563,569.00425 L 321.50563,566.67092 L 337.80563,566.67092 C 355.40056,566.67092 356.50563,566.36363 356.50563,561.47092 L 356.50563,558.67092 L 343.97351,558.67092 C 331.12234,558.67092 326.70528,557.72771 323.21597,554.2384 C 321.80072,552.82316 321.50563,550.54631 321.50563,541.04199 L 321.50563,529.55592 L 325.75563,529.86342 L 330.00563,530.17092 L 330.28828,541.41006 C 330.61977,554.5913 329.27302,553.5033 345.75774,553.90737 L 356.50985,554.17092 L 356.61404,544.17092 C 356.77115,529.09113 356.4068,530.21425 361.25563,529.86342 L 365.50563,529.55592 L 365.50563,547.5365 L 365.50563,565.51707 L 362.57638,568.44633 C 360.35358,570.66913 358.36391,571.52968 354.32638,572.01456 C 347.28309,572.8604 323.02067,572.85262 322.1723,572.00425 z M 457.00563,562.67092 C 454.14736,559.68753 454.06949,559.67092 442.94066,559.67092 C 430.52245,559.67092 425.63746,558.32795 422.90905,554.16387 C 420.97113,551.20622 420.05175,529.31344 421.63608,523.85113 C 423.24261,518.31232 428.28343,516.71934 444.28775,516.69288 C 466.35676,516.65639 467.50563,517.72638 467.50563,538.3167 C 467.50563,552.02566 467.41858,552.62092 464.99207,555.50467 L 462.47851,558.49186 L 466.67207,562.08139 L 470.86563,565.67092 L 465.37272,565.67092 C 460.57486,565.67092 459.51612,565.29131 457.00563,562.67092 z M 443.27032,550.14386 L 439.535,546.67092 L 444.72271,546.67092 C 449.21806,546.67092 450.35985,547.10466 453.27794,549.92092 C 456.54226,553.07131 456.6893,553.11143 458.07555,551.22979 C 459.11293,549.82169 459.50563,546.24436 459.50563,538.2023 C 459.50563,522.74672 459.43915,522.67092 445.88318,522.67092 C 440.10321,522.67092 434.50373,523.13675 433.43989,523.7061 C 431.67511,524.65058 431.50563,525.91673 431.50563,538.15641 C 431.50563,553.72806 431.43191,553.60811 441.00563,553.61345 L 447.00563,553.6168 L 443.27032,550.14386 z M 248.50563,539.82591 C 248.50563,521.16968 248.62693,519.87112 250.53049,518.14842 C 253.46825,515.48978 261.81769,515.50339 264.33384,518.17092 C 265.37142,519.27092 269.31208,527.48342 273.09087,536.42092 C 276.86967,545.35842 280.20872,552.67092 280.51099,552.67092 C 280.81327,552.67092 282.36532,549.63342 283.96,545.92092 C 289.76035,532.4174 295.68663,520.1315 297.2156,518.44048 C 299.53523,515.87499 304.59788,515.2648 308.84397,517.03893 L 312.50563,518.56887 L 312.50563,539.11989 L 312.50563,559.67092 L 308.50563,559.67092 L 304.50563,559.67092 L 304.50563,542.22994 C 304.50563,532.6374 304.16813,524.58093 303.75563,524.32668 C 303.34313,524.07243 299.85563,530.87345 296.00563,539.44005 C 287.24731,558.92812 286.69112,559.67092 280.85738,559.67092 C 277.44103,559.67092 275.87631,559.12793 274.37369,557.42092 C 273.28435,556.18342 269.05168,547.74592 264.96775,538.67092 L 257.54242,522.17092 L 257.52403,540.92092 L 257.50563,559.67092 L 253.00563,559.67092 L 248.50563,559.67092 L 248.50563,539.82591 z M 373.50563,556.67092 L 373.50563,553.67092 L 386.94053,553.67092 C 404.05738,553.67092 405.50563,553.16854 405.50563,547.23085 C 405.50563,541.42081 404.08056,540.67092 393.03925,540.67092 C 384.30157,540.67092 378.89955,539.24238 375.29223,535.97779 C 374.00786,534.81546 373.50563,532.8814 373.50563,529.09772 C 373.50563,522.09929 374.07204,520.93277 378.58913,518.62832 C 381.94033,516.91866 384.51937,516.67092 398.96579,516.67092 L 415.50563,516.67092 L 415.50563,519.67092 L 415.50563,522.67092 L 399.61262,522.67092 C 382.28134,522.67092 382.50563,522.59225 382.50563,528.67092 C 382.50563,534.37024 382.99437,534.66892 392.36262,534.69478 C 402.44726,534.72261 407.84135,535.78685 411.42824,538.45636 C 413.57861,540.05676 414.05519,541.30602 414.30476,545.99669 C 414.67765,553.00524 413.46166,555.33361 408.17495,557.73397 C 404.67652,559.32239 401.55175,559.63053 388.75563,559.64896 L 373.50563,559.67092 L 373.50563,556.67092 z M 482.09656,558.19018 C 474.23298,555.38808 474.04704,554.86826 473.67465,534.64517 L 473.34366,516.67092 L 477.86019,516.67092 L 482.37671,516.67092 L 482.69117,534.09017 C 482.86412,543.67076 483.37982,551.88326 483.83716,552.34017 C 484.29449,552.79708 491.60699,553.32381 500.08716,553.51067 L 515.50563,553.85042 L 515.50563,556.76067 L 515.50563,559.67092 L 500.75563,559.62703 C 490.78784,559.59737 484.73824,559.13151 482.09656,558.19018 z M 519.44857,555.24235 C 519.51898,554.04916 517.5875,555.60499 517.4572,554.06398 C 517.38221,553.17704 519.95967,553.60396 520.6764,553.60396 C 521.42059,553.60396 523.15906,553.22468 523.21215,554.26097 C 523.26565,555.30552 521.16217,554.27457 521.18758,555.26453 C 521.22376,556.67458 521.1278,558.20082 521.14685,559.51452 C 521.15365,559.98336 519.31139,560.07159 519.31259,559.49235 C 519.31369,559.00128 519.46753,556.89235 519.44857,555.24235 z M 524.35377,556.69771 C 524.54359,554.73367 525.59054,551.91688 526.12258,553.40478 C 526.6661,554.92475 528.8594,555.42376 529.46086,553.4765 C 530.11034,551.37375 531.53345,556.08518 531.44771,556.93015 C 531.41014,557.3005 531.86782,559.21803 530.77083,559.30738 C 530.47839,559.3312 529.96863,556.14004 529.78381,556.34056 C 529.37235,556.78699 528.98187,557.9191 528.36594,557.99178 C 527.73801,558.06589 527.72252,558.50239 526.51965,556.85737 C 525.2969,555.18517 526.01391,559.74185 525.11951,559.64365 C 524.06752,559.52815 524.15116,558.43615 524.35377,556.69771 z M 521.00563,522.07112 C 513.34099,517.86788 507.50563,512.64896 507.50563,509.99724 C 507.50563,508.55556 513.09476,506.87127 519.25416,506.4568 C 521.59086,506.29957 523.50336,505.85019 523.50416,505.45818 C 523.50677,504.18948 511.58743,496.60997 507.23388,495.1119 C 499.19084,492.34427 498.88159,491.97842 492.31098,477.45782 C 485.31866,462.00527 478.64837,452.27077 471.00563,446.36514 C 463.78459,440.78536 454.7937,436.67265 449.81465,436.67171 C 447.50961,436.67128 445.31789,436.17617 444.94417,435.57148 C 444.57045,434.96679 441.54963,433.18803 438.23124,431.61867 C 433.67747,429.46508 431.74504,429.00761 430.35171,429.7533 C 429.33637,430.29669 428.50563,430.98004 428.50563,431.27185 C 428.50563,432.30308 430.74894,435.97237 433.91628,440.12181 C 435.67969,442.432 438.37813,447.88812 439.91282,452.24653 C 441.44752,456.60495 443.55873,461.09992 444.6044,462.23537 C 446.94254,464.77424 446.98026,466.99397 444.81746,474.77312 C 443.39793,479.87891 443.31462,481.72867 444.29396,486.39767 C 445.47059,492.00731 447.80703,496.67092 449.44079,496.67092 C 449.92976,496.67092 450.6476,494.75842 451.03598,492.42092 C 451.80063,487.8188 454.07703,482.67092 455.34744,482.67092 C 455.78219,482.67092 457.44544,485.48342 459.04355,488.92092 C 460.64167,492.35842 463.2676,497.19592 464.87896,499.67092 L 467.8087,504.17092 L 464.06954,500.67092 C 462.013,498.74592 459.40294,495.37092 458.26942,493.17092 C 456.43957,489.61946 456.12088,489.39519 455.42733,491.17092 C 454.99771,492.27092 454.61457,494.31842 454.57592,495.72092 C 454.43575,500.80608 450.30843,502.21881 446.72767,498.40727 C 441.58461,492.93273 439.9761,481.28351 442.99112,471.34616 C 444.36136,466.82992 444.32871,466.35034 442.48047,463.84616 C 441.39449,462.37478 438.99667,457.32348 437.15196,452.62106 C 435.30726,447.91864 432.15719,441.92167 430.1518,439.29447 C 425.76822,433.55167 425.35582,429.47041 428.92292,427.13316 C 432.0071,425.11232 438.01388,426.53378 444.30576,430.77339 C 447.36271,432.83323 449.82614,433.67092 452.82667,433.67092 C 461.11062,433.67092 478.27706,446.22566 486.68214,458.43124 C 488.29571,460.77441 492.23485,468.42441 495.43579,475.43124 L 501.25566,488.17092 L 509.62439,492.67092 C 518.6576,497.52822 528.53623,506.04796 526.95108,507.61418 C 526.43108,508.12796 523.92046,508.79606 521.37191,509.09884 C 518.82337,509.40161 515.69862,510.0339 514.42804,510.50392 C 511.75785,511.49169 511.57297,511.27748 521.33678,518.50908 C 525.49627,521.58983 531.00142,527.15017 529.31233,526.56459 C 529.14365,526.50611 525.40563,524.48405 521.00563,522.07112 z M 450.50563,448.49966 C 450.50563,447.85547 449.76089,446.50547 448.85064,445.49966 C 447.48523,443.9909 447.45024,443.67092 448.65064,443.67092 C 449.45089,443.67092 450.64563,444.21092 451.30563,444.87092 C 452.75877,446.32406 452.89822,449.67092 451.50563,449.67092 C 450.95563,449.67092 450.50563,449.14385 450.50563,448.49966 z "
         id="path4423" />
      <path
         style="fill:#066688"
         d="M 322.1723,572.00425 C 321.80563,571.63759 321.50563,570.28759 321.50563,569.00425 L 321.50563,566.67092 L 337.80563,566.67092 C 355.40056,566.67092 356.50563,566.36363 356.50563,561.47092 L 356.50563,558.67092 L 343.97351,558.67092 C 331.12234,558.67092 326.70528,557.72771 323.21597,554.2384 C 321.80072,552.82316 321.50563,550.54631 321.50563,541.04199 L 321.50563,529.55592 L 325.75563,529.86342 L 330.00563,530.17092 L 330.28828,541.41006 C 330.61977,554.5913 329.27302,553.5033 345.75774,553.90737 L 356.50985,554.17092 L 356.61404,544.17092 C 356.77115,529.09113 356.4068,530.21425 361.25563,529.86342 L 365.50563,529.55592 L 365.50563,547.5365 L 365.50563,565.51707 L 362.57638,568.44633 C 360.35358,570.66913 358.36391,571.52968 354.32638,572.01456 C 347.28309,572.8604 323.02067,572.85262 322.1723,572.00425 z M 248.50563,539.82591 C 248.50563,521.16968 248.62693,519.87112 250.53049,518.14842 C 253.46825,515.48978 261.81769,515.50339 264.33384,518.17092 C 265.37142,519.27092 269.31208,527.48342 273.09087,536.42092 C 276.86967,545.35842 280.20872,552.67092 280.51099,552.67092 C 280.81327,552.67092 282.36532,549.63342 283.96,545.92092 C 289.76035,532.4174 295.68663,520.1315 297.2156,518.44048 C 299.53523,515.87499 304.59788,515.2648 308.84397,517.03893 L 312.50563,518.56887 L 312.50563,539.11989 L 312.50563,559.67092 L 308.50563,559.67092 L 304.50563,559.67092 L 304.50563,542.22994 C 304.50563,532.6374 304.16813,524.58093 303.75563,524.32668 C 303.34313,524.07243 299.85563,530.87345 296.00563,539.44005 C 287.24731,558.92812 286.69112,559.67092 280.85738,559.67092 C 277.44103,559.67092 275.87631,559.12793 274.37369,557.42092 C 273.28435,556.18342 269.05168,547.74592 264.96775,538.67092 L 257.54242,522.17092 L 257.52403,540.92092 L 257.50563,559.67092 L 253.00563,559.67092 L 248.50563,559.67092 L 248.50563,539.82591 z M 521.00563,522.07112 C 513.34099,517.86788 507.50563,512.64896 507.50563,509.99724 C 507.50563,508.55556 513.09476,506.87127 519.25416,506.4568 C 521.59086,506.29957 523.50336,505.85019 523.50416,505.45818 C 523.50677,504.18948 511.58743,496.60997 507.23388,495.1119 C 499.19084,492.34427 498.88159,491.97842 492.31098,477.45782 C 485.31866,462.00527 478.64837,452.27077 471.00563,446.36514 C 463.78459,440.78536 454.7937,436.67265 449.81465,436.67171 C 447.50961,436.67128 445.31789,436.17617 444.94417,435.57148 C 444.57045,434.96679 441.54963,433.18803 438.23124,431.61867 C 433.67747,429.46508 431.74504,429.00761 430.35171,429.7533 C 429.33637,430.29669 428.50563,430.98004 428.50563,431.27185 C 428.50563,432.30308 430.74894,435.97237 433.91628,440.12181 C 435.67969,442.432 438.37813,447.88812 439.91282,452.24653 C 441.44752,456.60495 443.55873,461.09992 444.6044,462.23537 C 446.94254,464.77424 446.98026,466.99397 444.81746,474.77312 C 443.39793,479.87891 443.31462,481.72867 444.29396,486.39767 C 445.47059,492.00731 447.80703,496.67092 449.44079,496.67092 C 449.92976,496.67092 450.6476,494.75842 451.03598,492.42092 C 451.80063,487.8188 454.07703,482.67092 455.34744,482.67092 C 455.78219,482.67092 457.44544,485.48342 459.04355,488.92092 C 460.64167,492.35842 463.2676,497.19592 464.87896,499.67092 L 467.8087,504.17092 L 464.06954,500.67092 C 462.013,498.74592 459.40294,495.37092 458.26942,493.17092 C 456.43957,489.61946 456.12088,489.39519 455.42733,491.17092 C 454.99771,492.27092 454.61457,494.31842 454.57592,495.72092 C 454.43575,500.80608 450.30843,502.21881 446.72767,498.40727 C 441.58461,492.93273 439.9761,481.28351 442.99112,471.34616 C 444.36136,466.82992 444.32871,466.35034 442.48047,463.84616 C 441.39449,462.37478 438.99667,457.32348 437.15196,452.62106 C 435.30726,447.91864 432.15719,441.92167 430.1518,439.29447 C 425.76822,433.55167 425.35582,429.47041 428.92292,427.13316 C 432.0071,425.11232 438.01388,426.53378 444.30576,430.77339 C 447.36271,432.83323 449.82614,433.67092 452.82667,433.67092 C 461.11062,433.67092 478.27706,446.22566 486.68214,458.43124 C 488.29571,460.77441 492.23485,468.42441 495.43579,475.43124 L 501.25566,488.17092 L 509.62439,492.67092 C 518.6576,497.52822 528.53623,506.04796 526.95108,507.61418 C 526.43108,508.12796 523.92046,508.79606 521.37191,509.09884 C 518.82337,509.40161 515.69862,510.0339 514.42804,510.50392 C 511.75785,511.49169 511.57297,511.27748 521.33678,518.50908 C 525.49627,521.58983 531.00142,527.15017 529.31233,526.56459 C 529.14365,526.50611 525.40563,524.48405 521.00563,522.07112 z M 450.50563,448.49966 C 450.50563,447.85547 449.76089,446.50547 448.85064,445.49966 C 447.48523,443.9909 447.45024,443.67092 448.65064,443.67092 C 449.45089,443.67092 450.64563,444.21092 451.30563,444.87092 C 452.75877,446.32406 452.89822,449.67092 451.50563,449.67092 C 450.95563,449.67092 450.50563,449.14385 450.50563,448.49966 z "
         id="path4419" />
    </g>
    <path
       id="path4480"
       d="M 640.70678,377.57989 C 640.48635,377.4202 640.32661,376.60891 640.35183,375.77702 C 640.39195,374.45279 640.76165,373.89521 643.32138,371.29825 C 647.01406,367.55185 653.10621,362.60407 657.70571,359.6159 C 663.45701,355.87945 674.84321,350.42879 675.50815,351.09373 C 675.61296,351.19854 674.05109,352.04394 672.03733,352.97241 C 661.93033,357.63233 652.36946,363.95352 644.25268,371.34229 C 641.51481,373.8346 640.90998,374.59432 640.90998,375.54098 C 640.90998,376.24326 641.11766,376.69676 641.43928,376.69676 C 642.00427,376.69676 644.67646,374.1712 649.82352,368.77256 C 651.5743,366.93621 654.63922,364.27779 656.63446,362.86497 C 660.09931,360.41154 667.54275,356.16001 668.37595,356.15851 C 668.59331,356.15812 667.52608,356.83662 666.00434,357.66629 C 660.75877,360.52625 656.19386,364.09937 650.78982,369.57525 C 645.95977,374.46951 642.07721,377.89229 641.37369,377.87629 C 641.22733,377.87296 640.92722,377.73959 640.70678,377.57989 z M 654.34657,368.18768 C 654.34657,367.86848 654.42094,367.6073 654.51184,367.6073 C 654.60274,367.6073 654.96044,367.49858 655.30671,367.3657 C 655.75803,367.19251 655.87044,367.29576 655.70367,367.73034 C 655.38358,368.56448 654.34657,368.91396 654.34657,368.18768 z M 656.71773,368.46323 C 656.71773,367.63143 668.41391,362.83676 670.32234,362.88623 C 670.77332,362.89792 670.1642,363.22365 668.96874,363.61009 C 667.77328,363.99653 664.77179,365.32074 662.29877,366.55278 C 657.92888,368.72985 656.71773,369.14444 656.71773,368.46323 z M 600.02119,366.40343 C 598.61807,365.43284 598.03933,365.30413 594.48706,365.17264 C 591.15752,365.04938 590.27544,364.87468 588.99865,364.08558 C 586.05505,362.26633 585.20072,359.21957 586.77108,356.14143 C 588.94939,351.87161 594.70955,348.72132 597.27042,350.39926 C 598.26106,351.04837 598.26868,351.08737 597.60326,352.10294 C 597.0715,352.9145 597.03573,353.18014 597.44004,353.31492 C 598.28695,353.59722 601.00129,356.2618 601.61308,357.41143 C 602.63095,359.32416 602.34392,361.14541 600.58472,363.93655 C 600.09294,364.7168 600.13153,364.94262 600.94463,366.04238 C 601.44553,366.7199 601.79525,367.32219 601.72178,367.38081 C 601.6483,367.43942 600.88304,366.99959 600.02119,366.40343 z M 596.02087,363.02116 C 596.36344,362.8897 596.53236,362.60197 596.39626,362.38176 C 595.95417,361.66643 595.51875,359.22675 595.73335,358.66749 C 595.84835,358.36782 596.19397,358.12264 596.50141,358.12264 C 597.08306,358.12264 597.61431,359.13032 598.01132,360.98663 C 598.21859,361.95576 598.32754,362.01976 599.02665,361.58316 C 599.45739,361.31416 599.8098,360.71397 599.8098,360.24941 C 599.8098,359.0982 598.75332,356.65838 597.60015,355.1465 C 597.0766,354.4601 596.64825,353.5985 596.64825,353.23181 C 596.64825,352.86514 596.37939,352.46195 596.05078,352.33585 C 595.07453,351.96123 591.32296,354.05488 589.57764,355.94834 C 588.24052,357.39894 587.95399,357.98871 587.95399,359.29029 C 587.95399,360.54158 588.16052,361.00611 588.94556,361.52049 C 591.1028,362.93396 594.41653,363.6368 596.02087,363.02116 z M 574.3198,365.7856 C 572.05066,365.24991 569.93704,363.92318 569.28108,362.62276 C 568.38128,360.83895 568.4084,360.03787 569.3281,361.23383 C 569.92969,362.01613 570.50212,362.20386 572.78375,362.36711 C 575.55755,362.56558 580.00747,361.74434 581.10818,360.83083 C 581.65862,360.37402 581.79399,359.00753 581.39248,357.96119 C 581.01327,356.973 576.89379,354.73291 574.5174,354.22268 C 573.32194,353.96599 572.11551,353.61278 571.83645,353.43775 C 570.2054,352.41476 574.14683,350.21877 577.61399,350.21877 C 578.91198,350.21877 580.21518,350.44993 580.6309,350.75391 C 581.27762,351.22681 581.03026,351.31285 578.50457,351.49356 C 576.93256,351.60603 575.4663,351.87815 575.24618,352.09826 C 574.67811,352.66633 576.12887,353.58977 579.18954,354.6083 C 580.58456,355.07253 582.28253,355.94967 582.96279,356.55749 C 584.08725,357.56219 584.19965,357.87727 584.19965,360.0247 C 584.19965,362.81432 583.66048,363.59014 580.89499,364.77982 C 578.96272,365.61107 575.69671,366.11065 574.3198,365.7856 z M 604.93825,365.41997 C 604.47425,364.85864 604.35453,363.34243 604.35453,358.02721 C 604.35453,351.86431 604.41462,351.29667 605.12166,350.77968 C 606.10819,350.05833 606.25759,350.07062 607.36069,350.96386 C 608.08944,351.55397 608.18474,351.82476 607.81881,352.26567 C 607.29189,352.90056 606.34461,361.4216 606.69845,362.34366 C 606.94857,362.99546 607.6844,362.94702 611.53613,362.02512 C 613.16052,361.63633 613.91533,361.6363 615.21255,362.02496 C 618.54926,363.02465 617.4976,364.86429 613.33959,365.3013 C 611.87552,365.45518 609.51761,365.70371 608.0998,365.85359 C 605.89623,366.08655 605.43721,366.02359 604.93825,365.41997 z M 629.45723,365.33432 C 627.67904,364.44092 626.39619,362.49038 626.05972,360.16846 C 625.71539,357.7923 625.49365,357.44785 624.86329,358.30994 C 624.29407,359.08838 623.24349,358.88802 622.87624,357.93096 C 622.54672,357.07226 623.73128,355.43745 624.79255,355.28626 C 625.54055,355.17969 625.73368,354.83344 625.96585,353.18272 C 626.60177,348.66147 626.6354,348.57915 627.7922,348.7127 C 628.96289,348.84787 629.01839,349.17575 628.4603,352.65989 L 628.16424,354.50823 L 630.98037,354.78572 C 633.8674,355.07021 634.8857,355.75148 632.42388,355.75148 C 630.91132,355.75148 627.4721,357.24825 627.47559,357.905 C 627.48468,359.61749 628.52662,361.51911 630.45984,363.35147 C 631.64293,364.47284 632.6109,365.53346 632.6109,365.70841 C 632.6109,366.25815 630.88959,366.05396 629.45723,365.33432 z M 636.5476,365.31583 C 634.11858,364.05387 633.40129,363.47877 633.40129,362.79323 C 633.40129,362.42363 633.55371,362.02703 633.74,361.9119 C 633.92629,361.79677 634.18371,360.68525 634.31203,359.44186 C 634.64185,356.24626 635.55946,355.15192 637.88348,355.18258 C 640.59825,355.21839 641.4356,356.14934 641.20915,358.88 C 641.06271,360.64579 640.82131,361.20961 639.83401,362.09175 C 639.17539,362.68024 638.39223,363.24846 638.09366,363.35444 C 636.96702,363.7544 638.28378,364.23023 640.93119,364.37982 C 643.9162,364.5485 644.37149,364.91648 642.43178,365.59267 C 640.58471,366.23656 638.0943,366.11939 636.5476,365.31583 z M 638.26007,360.41758 C 639.13975,359.23935 638.87288,357.72745 637.78523,357.72745 C 636.70433,357.72745 635.64694,360.63176 636.43934,361.42416 C 636.85896,361.84378 637.43164,361.52717 638.26007,360.41758 z M 619.77855,364.32536 C 618.84756,362.1136 618.32248,358.92566 618.60675,357.21102 C 618.81381,355.96209 618.99895,355.72719 619.69693,355.82784 C 620.15936,355.89453 620.76183,356.39367 621.03576,356.93707 C 621.74059,358.33522 621.70003,364.08557 620.97845,365.0618 C 620.43861,365.79215 620.3811,365.75686 619.77855,364.32536 z M 649.7942,362.66292 C 650.62433,362.01474 651.77781,362.02047 651.77781,362.67279 C 651.77781,362.88717 651.15538,363.11017 650.39463,363.16833 C 649.07884,363.26895 649.04959,363.24432 649.7942,362.66292 z M 646.41875,360.86506 C 645.91887,360.36519 645.65181,359.6617 645.72716,359.04325 C 645.8346,358.16129 646.25803,357.89916 649.12554,356.93942 C 650.92714,356.33644 653.37917,355.19373 654.5745,354.40007 C 656.67041,353.00847 657.50812,352.87317 657.50812,353.92625 C 657.50812,354.67619 655.13256,358.91303 654.71208,358.91303 C 654.11977,358.91303 654.29262,358.01837 655.15973,356.59609 C 655.60535,355.86518 655.88911,355.18633 655.79034,355.08756 C 655.69156,354.98877 654.74833,355.34023 653.69427,355.86856 C 652.64022,356.39689 651.06645,357.04436 650.19703,357.30739 C 646.12676,358.53876 645.58957,359.12621 647.43067,360.33255 C 647.97407,360.6886 648.41866,361.13729 648.41866,361.32965 C 648.41866,361.96533 647.2468,361.69311 646.41875,360.86506 z M 668.32374,361.36867 C 668.66728,360.81282 671.88439,359.36713 673.90866,358.85895 C 676.71398,358.1547 676.96766,357.72745 674.58049,357.72745 C 673.31728,357.72745 672.52548,357.55552 672.52548,357.28123 C 672.52548,356.96288 673.45981,356.91623 675.78584,357.11846 C 677.57903,357.27435 679.10845,357.46333 679.18456,357.53839 C 679.55694,357.90568 678.70564,358.4567 677.38225,358.70496 C 676.57097,358.85716 674.30158,359.5874 672.33916,360.32772 C 668.62888,361.72741 668.00151,361.89006 668.32374,361.36867 z M 669.95673,355.53961 C 670.6088,355.24103 671.40906,355.00225 671.7351,355.00899 C 672.06114,355.01572 671.70546,355.26092 670.94471,355.55389 C 669.14037,356.24873 668.43047,356.23848 669.95673,355.53961 z M 679.03968,354.41831 C 680.64121,353.00377 686.53706,349.72715 688.33324,349.2534 C 688.87664,349.11008 688.07637,349.67741 686.55487,350.51413 C 685.03337,351.35084 682.54365,352.80377 681.02216,353.74286 C 677.37275,355.99531 677.17973,356.06108 679.03968,354.41831 z M 660.9489,355.10858 C 660.66534,354.82502 661.65466,352.72977 662.55914,351.69833 C 663.51459,350.60875 662.87802,350.48327 661.00437,351.39185 L 659.28649,352.22489 L 660.66967,351.00852 C 662.12696,349.72699 665.74059,347.8476 666.74738,347.8476 C 667.78003,347.8476 667.81241,348.52792 666.81101,349.18407 C 665.47671,350.05833 663.99468,351.68874 662.72788,353.676 C 661.65114,355.36508 661.40423,355.56393 660.9489,355.10858 z M 618.46296,352.51089 C 617.68579,351.73372 617.92242,351.00916 618.95338,351.00916 C 620.13899,351.00916 620.58853,351.64067 619.95033,352.40964 C 619.36996,353.10895 619.08071,353.12865 618.46296,352.51089 z M 672.13029,350.07082 C 672.13029,349.77209 673.39065,348.57169 674.9311,347.40326 C 677.10122,345.75722 677.55488,345.25154 676.94574,345.15763 C 676.26445,345.05258 673.76425,345.59899 671.14231,346.42594 C 670.7076,346.56304 671.45541,346.12672 672.80411,345.45632 C 676.70566,343.51699 681.17945,343.42269 679.61076,345.31284 C 679.34046,345.63854 677.85799,346.74077 676.31639,347.76223 C 674.77478,348.7837 673.37126,349.84322 673.19744,350.11671 C 672.77686,350.77845 672.13029,350.75065 672.13029,350.07082 z M 678.65099,349.11902 C 679.07399,348.66339 682.48457,347.39991 682.70269,347.61804 C 682.77453,347.68988 682.07014,348.05719 681.13735,348.43428 C 678.40972,349.53698 678.21258,349.59127 678.65099,349.11902 z M 691.88999,347.64307 C 693.30281,346.88839 694.85889,345.81549 695.34793,345.25885 C 695.87946,344.65387 696.23713,344.46637 696.23713,344.79273 C 696.23713,345.66033 694.64847,346.90785 692.13721,348.01224 C 688.93307,349.42133 688.83502,349.27495 691.88999,347.64307 z M 696.26832,343.3358 C 696.25116,342.91921 696.34456,342.68579 696.47589,342.81711 C 696.60721,342.94844 696.62124,343.28929 696.50709,343.57457 C 696.38093,343.88983 696.28728,343.79619 696.26832,343.3358 z M 680.42937,342.09712 C 680.42937,341.4861 683.46991,340.73722 685.85059,340.76189 C 690.46497,340.80971 690.40552,341.34238 685.72926,341.84894 C 680.82813,342.37986 680.42937,342.39853 680.42937,342.09712 z M 690.41624,341.68093 C 690.54756,341.54961 690.88841,341.53558 691.1737,341.64973 C 691.48896,341.77589 691.39531,341.86953 690.93494,341.88849 C 690.51834,341.90566 690.28493,341.81225 690.41624,341.68093 z "
       style="fill:#7da397" />
    <g
       id="g4594"
       transform="matrix(0.1700038,0,0,0.1700038,623.32083,272.45239)">
      <path
         style="fill:#2c5c8b"
         d="M 340.05089,913.33236 C 333.11268,909.89801 328.77131,898.51885 328.77131,883.76748 L 328.77131,877.38493 L 326.02131,878.15398 C 320.59465,879.67156 310.17311,878.85765 306.38066,876.62005 C 303.14185,874.70911 302.56498,874.6494 300.04438,875.9642 C 292.39574,879.95393 283.49743,874.72051 277.3828,862.63611 C 273.85438,855.66286 269.15303,841.78873 266.28581,829.88781 C 258.61664,798.05557 263.06029,780.16772 280.6489,772.06939 C 284.47417,770.30812 287.08205,769.95244 295.77131,770.00688 C 302.17068,770.04696 308.58583,770.7078 312.19783,771.69901 C 317.85754,773.25214 318.39351,773.23468 324.10353,771.31111 C 328.58597,769.80109 332.48443,769.32371 339.67702,769.40412 C 344.95388,769.46311 352.94392,768.96708 357.43267,768.30185 C 367.4931,766.81088 378.17253,768.07308 385.93569,771.6706 C 392.8819,774.88954 400.58268,781.79858 402.89284,786.88432 C 407.67708,797.4167 403.43794,819.38241 392.20662,842.25637 L 387.13286,852.5897 L 394.02211,851.89783 C 400.32934,851.26443 401.11666,851.39883 403.34134,853.48882 C 404.67782,854.74437 405.77131,856.61555 405.77131,857.647 C 405.77131,865.44169 392.99108,873.32146 380.22379,873.39858 L 376.17627,873.42303 L 375.01735,883.79391 C 372.80913,903.55478 368.13726,910.37206 354.27131,914.06694 C 347.4267,915.89083 344.96239,915.76353 340.05089,913.33236 z M 360.83003,908.31528 C 367.18045,904.78462 369.24358,899.86941 371.36946,883.2061 L 373.12788,869.42303 L 378.76809,869.42303 C 386.26829,869.42303 393.43296,867.17386 398.02131,863.37895 C 404.88585,857.70146 402.10913,853.82187 392.32123,855.4149 C 389.18561,855.92524 385.3024,856.07925 383.69187,855.75714 L 380.76365,855.1715 L 382.68517,852.04726 C 387.19936,844.70758 393.16066,831.49392 396.42973,821.58145 C 400.49974,809.24035 402.04782,793.919 399.77836,788.44005 C 398.05352,784.27593 390.48746,777.71846 383.77131,774.56682 C 378.76319,772.2167 377.19811,771.99465 366.27131,772.08403 C 336.82074,772.32493 328.45948,772.91282 323.69499,775.07762 L 319.11867,777.15692 L 311.69499,775.21778 C 307.37974,774.09059 300.7122,773.24599 295.77131,773.20065 C 281.97198,773.07407 273.64586,777.88784 268.57714,788.92303 C 265.42608,795.78324 265.46388,811.85827 268.6618,824.92303 C 276.65721,857.5874 285.13172,873.42303 294.6168,873.42303 C 298.191,873.42303 300.49954,871.51066 309.4747,861.11489 L 313.6258,856.30676 L 317.84327,857.44241 C 322.03628,858.57146 322.04934,858.58945 320.09493,860.54386 C 319.01373,861.62505 315.68865,863.15345 312.70585,863.94029 C 307.51617,865.3093 304.37366,867.73008 305.07088,869.82174 C 305.93057,872.40079 311.07124,874.8171 316.54004,875.21267 C 321.7715,875.59109 325.38869,874.70181 330.90659,871.68066 C 331.25599,871.48936 331.72988,877.54064 331.95967,885.12793 C 332.43218,900.72933 334.10598,905.76968 340.06165,909.52569 C 344.4799,912.3121 354.71395,911.71564 360.83003,908.31528 z M 343.86771,906.18309 C 337.75198,902.97698 335.858,895.04286 335.80219,872.39554 C 335.76799,858.5204 334.93235,856.0558 329.79899,854.69001 L 326.91629,853.92303 L 329.95523,846.92303 C 333.38658,839.01918 334.43917,830.48379 333.29739,819.82192 C 332.66867,813.95109 332.1178,812.56952 329.27018,809.7219 C 326.42196,806.87368 325.29129,806.42303 320.99343,806.42303 C 318.2556,806.42303 314.31984,807.13155 312.2473,807.99751 L 308.47905,809.57199 L 309.08687,805.13739 C 310.75054,792.99959 317.16159,783.22217 325.93002,779.4501 C 333.15657,776.34132 344.70147,776.86481 353.02395,780.67863 C 360.48385,784.09716 368.69747,791.93111 372.70491,799.44983 L 375.88859,805.42303 L 372.29783,805.42303 C 367.4026,805.42303 362.27388,807.72637 360.23273,810.84157 C 358.94875,812.80115 358.63733,814.97805 358.94647,819.83285 C 359.29521,825.30976 360.28941,828.07552 365.80335,838.90795 C 369.35029,845.87613 372.844,852.06839 373.56713,852.66854 C 374.61829,853.54093 374.34896,854.18467 372.22383,855.87919 C 369.88863,857.74122 369.46119,859.02659 368.70502,866.46085 C 366.92961,883.91576 364.72064,896.82655 362.99651,899.82543 C 359.94721,905.12928 348.87633,908.80881 343.86771,906.18309 z M 311.27131,869.42303 C 310.93139,868.87302 311.57073,868.42303 312.69206,868.42303 C 316.40231,868.42303 322.43199,865.37325 324.64819,862.37568 C 327.14848,858.99386 329.26374,858.60611 330.68857,861.26842 C 331.92877,863.58576 329.85293,866.81233 325.76027,868.92874 C 322.51176,870.60861 312.22101,870.95968 311.27131,869.42303 z M 289.56587,865.67303 C 283.9708,859.70843 277.60087,843.04514 273.28502,823.08344 C 267.6285,796.92088 271.74681,783.10239 286.4767,778.82029 C 292.59743,777.04094 301.32651,777.2724 309.9374,779.44235 L 314.60349,780.6182 L 311.68398,785.22179 C 305.51867,794.94347 304.56683,799.20405 303.73428,820.80589 C 302.91601,842.03727 303.22719,844.47195 307.49328,850.21627 L 309.93905,853.5095 L 303.26528,860.96627 C 295.79901,869.30852 293.66416,870.042 289.56587,865.67303 z M 376.02131,864.66402 C 373.41853,864.22433 373.00057,861.30758 375.27041,859.42377 C 376.45378,858.44165 377.38678,858.43532 379.70046,859.39368 C 381.31249,860.06141 385.3212,860.45367 388.60872,860.26538 C 395.39303,859.8768 395.64974,860.59028 389.51097,862.77292 C 384.72344,864.47514 379.35677,865.22749 376.02131,864.66402 z M 315.69299,851.14923 C 313.83724,849.89864 311.28776,847.34533 310.02748,845.47519 C 307.85055,842.24485 307.75967,841.39887 308.20857,828.54386 L 308.68107,815.01275 L 311.97619,813.33866 C 324.16639,807.14535 329.07626,811.30943 329.17266,827.92303 C 329.21241,834.77391 328.7201,837.17935 325.7452,844.66942 C 321.91629,854.30964 321.13248,854.81489 315.69299,851.14923 z M 325.33018,816.92303 C 327.25169,815.43818 327.25169,815.40787 325.33018,813.92303 C 324.26256,813.09803 322.56094,812.42303 321.5488,812.42303 C 318.87833,812.42303 318.06826,815.43578 320.29996,817.06764 C 322.62705,818.76925 322.95315,818.75986 325.33018,816.92303 z M 377.78662,850.29515 C 377.7782,849.94982 378.39298,848.14981 379.1528,846.29515 C 380.18921,843.76534 380.49721,837.92728 380.38582,822.92303 L 380.23736,802.92303 L 377.25433,797.46298 C 373.60117,790.77632 364.66602,781.44039 359.27131,778.67335 L 355.27131,776.62167 L 360.27131,775.86652 C 366.72811,774.89131 377.47322,776.72468 383.56206,779.84044 C 386.15215,781.16583 390.07131,784.11179 392.27131,786.38702 C 396.26052,790.51266 396.27104,790.5446 396.17001,798.22343 C 396.06666,806.07897 393.55487,817.20223 389.57633,827.42303 C 386.30418,835.82912 377.83455,852.26027 377.78662,850.29515 z M 368.93326,834.63346 C 360.25327,816.60658 360.99534,810.42303 371.8387,810.42303 C 376.6587,810.42303 376.86793,810.53287 376.12442,812.67303 C 375.69451,813.91053 375.44535,821.53016 375.57073,829.60555 C 375.69611,837.68093 375.41432,844.52562 374.94453,844.81597 C 374.47473,845.10632 371.76966,840.52418 368.93326,834.63346 z M 371.57131,815.22303 C 373.48695,813.30739 372.96381,811.42172 370.52131,811.43834 C 367.32723,811.46008 365.37629,812.95124 366.09421,814.8221 C 366.81774,816.70761 369.86376,816.93057 371.57131,815.22303 z M 311.17097,750.99509 C 309.46578,750.25278 307.76769,748.85599 307.39743,747.8911 C 306.26902,744.95052 307.70134,744.86801 310.34696,747.72118 C 312.47959,750.02112 313.66435,750.42303 318.31178,750.42303 C 324.73103,750.42303 327.77131,748.17323 327.77131,743.42303 C 327.77131,739.93715 327.8606,739.97415 324.13562,741.91687 C 318.47497,744.8691 309.24088,743.03746 306.80095,738.47842 C 305.47885,736.00804 305.47885,730.83802 306.80095,728.36764 C 309.48856,723.3458 321.25518,721.83599 325.78144,725.93219 C 327.5743,727.55471 327.77131,727.56915 327.77131,726.07802 C 327.77131,725.16777 328.44631,724.42303 329.27131,724.42303 C 330.51,724.42303 330.77131,726.26367 330.77131,734.98877 C 330.77131,740.79993 330.28509,746.46303 329.69082,747.57343 C 327.37037,751.90922 317.47187,753.73802 311.17097,750.99509 z M 325.31676,738.96848 C 328.75781,735.52743 328.67532,730.27929 325.13645,727.49561 C 321.59646,724.71105 314.94616,724.71105 311.40617,727.49561 C 307.68394,730.4235 307.68394,736.42255 311.40617,739.35045 C 315.25165,742.37531 322.09793,742.18732 325.31676,738.96848 z M 440.01293,744.47267 C 438.10113,742.87797 437.18035,742.74743 434.01293,743.62208 C 428.96214,745.0168 419.5154,744.0417 415.53034,741.71429 C 413.74161,740.66963 411.22399,738.26423 409.93564,736.36896 C 408.01298,733.5406 407.66929,731.9747 408.01795,727.63156 C 408.79331,717.97301 415.19219,712.95943 426.77131,712.93812 C 438.70396,712.91616 445.27512,718.70515 445.12476,729.10694 C 445.06608,733.16661 444.45073,735.15454 442.43455,737.7979 L 439.82043,741.22519 L 442.32773,742.86803 C 443.70675,743.77161 444.56914,744.94113 444.24416,745.46695 C 443.41011,746.81647 442.5924,746.62432 440.01293,744.47267 z M 434.13553,741.04421 C 439.31606,738.87964 441.77194,735.01628 441.76757,729.03817 C 441.76251,722.10576 439.22542,718.14378 433.35584,715.90215 C 424.82371,712.64371 416.14551,715.38966 412.52286,722.49411 C 410.15164,727.14436 410.32318,731.45646 413.04124,735.52515 C 417.23996,741.81024 426.50224,744.2336 434.13553,741.04421 z M 246.15943,743.44295 C 238.25837,740.25057 237.72198,728.57245 245.311,724.97122 C 251.4346,722.06538 261.31899,723.84083 263.69082,728.27263 C 265.08025,730.86879 265.08025,736.97726 263.69082,739.57343 C 261.57074,743.53484 251.75107,745.70223 246.15943,743.44295 z M 258.61192,740.82212 C 261.91928,738.50554 263.05847,734.82316 261.72124,730.7713 C 260.35254,726.6241 258.2349,725.42303 252.2916,725.42303 C 248.72909,725.42303 247.12218,725.98125 245.22585,727.87757 C 241.88636,731.21708 241.88636,736.62897 245.22585,739.96848 C 248.16443,742.90705 255.01184,743.34371 258.61192,740.82212 z M 272.03011,743.71844 C 269.24763,743.18185 266.39593,739.39841 267.7519,738.04244 C 268.36797,737.42637 269.46963,738.04107 270.81521,739.75171 C 272.65552,742.09128 273.62776,742.42303 278.64389,742.42303 C 284.55581,742.42303 286.77131,741.29422 286.77131,738.28205 C 286.77131,735.90006 286.06785,735.59969 277.71496,734.41503 C 269.37005,733.23152 267.5485,732.13173 267.97075,728.53179 C 268.35714,725.2376 271.8938,723.45673 278.08705,723.43777 C 284.10268,723.41936 288.69474,725.67268 288.756,728.67303 C 288.78777,730.22904 286.20122,729.34107 284.97294,727.37428 C 283.88761,725.63639 282.84265,725.37086 278.08591,725.62428 C 273.96895,725.84362 272.18499,726.40378 271.37482,727.73159 C 269.73995,730.41103 272.7107,732.15026 280.31283,732.96438 C 287.59313,733.74402 290.38541,735.84014 289.39586,739.78281 C 288.43164,743.62456 280.66751,745.38417 272.03011,743.71844 z M 299.27131,743.72267 C 295.80913,742.9119 294.77131,740.39319 294.77131,732.80145 C 294.77131,726.08907 294.60753,725.53058 292.52131,725.12876 L 290.27131,724.69538 L 292.52131,724.55921 C 294.40013,724.4455 294.77131,723.84564 294.77131,720.92303 C 294.77131,716.28526 297.51361,716.06636 297.95795,720.66866 C 298.21817,723.36383 298.78009,724.02215 301.27131,724.55034 L 304.27131,725.1864 L 300.98087,725.30471 L 297.69043,725.42303 L 297.98087,733.67303 C 298.26911,741.86063 298.29224,741.92543 301.03826,742.24109 C 302.56009,742.41602 303.54603,742.97852 303.22925,743.49109 C 302.62548,744.46799 302.48831,744.47601 299.27131,743.72267 z M 355.05544,743.72177 C 351.85944,743.10316 347.77131,737.81343 347.77131,734.29665 C 347.77131,732.66152 348.43264,730.04485 349.24093,728.48179 C 352.81716,721.5661 368.40751,721.93964 371.63275,729.01828 C 374.00765,734.23059 373.65655,734.42303 361.77131,734.42303 C 351.57605,734.42303 350.77131,734.56403 350.77131,736.35045 C 350.77131,742.08578 362.64307,744.64218 367.36222,739.92303 C 370.98768,736.29756 372.84568,736.54702 370.79242,740.38359 C 369.06538,743.61059 362.10694,745.08663 355.05544,743.72177 z M 369.77131,730.99561 C 369.77131,728.19957 364.75775,725.42303 359.70903,725.42303 C 355.72262,725.42303 354.56784,725.86624 352.84389,728.05789 C 351.70397,729.50706 350.77131,731.08205 350.77131,731.55789 C 350.77131,732.03372 355.04631,732.42303 360.27131,732.42303 C 367.8344,732.42303 369.77131,732.132 369.77131,730.99561 z M 383.18998,743.39869 C 379.66981,742.31861 377.29912,739.93316 376.50596,736.67303 C 376.09187,734.971 376.39643,734.42303 377.75652,734.42303 C 378.85268,734.42303 379.80587,735.42458 380.19849,736.98892 C 381.62191,742.66026 396.87563,744.48231 400.93744,739.46619 C 404.9007,734.57177 401.88628,731.15715 392.14561,729.5072 C 381.67001,727.73276 379.11749,726.673 377.82947,723.56345 C 376.45659,720.24901 377.72135,716.05532 380.55047,714.54121 C 383.84679,712.77707 392.13825,712.17548 396.59942,713.37675 C 401.18278,714.61091 404.77131,717.48559 404.77131,719.92303 C 404.77131,722.32609 401.80878,721.65177 400.80858,719.02105 C 399.61015,715.86896 393.91376,713.99459 387.99723,714.80553 C 382.43231,715.5683 380.77131,716.85956 380.77131,720.42303 C 380.77131,724.32966 382.46738,725.32011 392.2255,727.11189 C 402.90262,729.0724 406.00463,731.18151 405.57484,736.18836 C 405.12212,741.46231 401.40423,743.80028 392.98934,744.1027 C 389.29442,744.23548 384.88471,743.91868 383.18998,743.39869 z M 212.77131,728.33698 L 212.77131,713.25091 L 224.36174,713.58698 C 235.13195,713.89925 236.08731,714.0901 237.86174,716.28381 C 240.76835,719.87723 240.41402,725.77232 237.13645,728.35045 C 234.89685,730.11212 233.09672,730.42303 225.13645,730.42303 L 215.77131,730.42303 L 215.77131,736.92303 C 215.77131,742.03413 215.4508,743.42303 214.27131,743.42303 C 213.00426,743.42303 212.77131,741.08014 212.77131,728.33698 z M 234.94257,726.76804 C 237.35542,724.58443 237.26997,719.92169 234.77131,717.42303 C 233.08503,715.73676 231.43798,715.42303 224.27131,715.42303 L 215.77131,715.42303 L 215.77131,721.92303 L 215.77131,728.42303 L 224.44257,728.42303 C 231.10794,728.42303 233.53686,728.04019 234.94257,726.76804 z M 334.77131,733.92303 C 334.77131,728.25635 335.17482,724.42303 335.77131,724.42303 C 336.32131,724.42303 336.77131,725.13068 336.77131,725.99561 C 336.77131,727.29921 337.22199,727.21369 339.40617,725.49561 C 342.11435,723.36536 347.77131,722.64002 347.77131,724.42303 C 347.77131,724.97303 346.61673,725.42303 345.20557,725.42303 C 339.41868,725.42303 336.77131,729.55034 336.77131,738.57225 C 336.77131,741.24018 336.32131,743.42303 335.77131,743.42303 C 335.17482,743.42303 334.77131,739.5897 334.77131,733.92303 z M 448.77131,728.42303 C 448.77131,715.75635 449.00464,713.42303 450.27131,713.42303 C 451.53321,713.42303 451.77131,715.64525 451.77131,727.42303 L 451.77131,741.42303 L 463.27131,741.42303 C 470.27131,741.42303 474.77131,741.81433 474.77131,742.42303 C 474.77131,743.03841 469.77131,743.42303 461.77131,743.42303 L 448.77131,743.42303 L 448.77131,728.42303 z "
         id="path4536" />
      <path
         style="fill:#050605"
         d="M 340.05089,913.33236 C 333.11268,909.89801 328.77131,898.51885 328.77131,883.76748 L 328.77131,877.38493 L 326.02131,878.15398 C 320.59465,879.67156 310.17311,878.85765 306.38066,876.62005 C 303.14185,874.70911 302.56498,874.6494 300.04438,875.9642 C 292.39574,879.95393 283.49743,874.72051 277.3828,862.63611 C 273.85438,855.66286 269.15303,841.78873 266.28581,829.88781 C 258.61664,798.05557 263.06029,780.16772 280.6489,772.06939 C 284.47417,770.30812 287.08205,769.95244 295.77131,770.00688 C 302.17068,770.04696 308.58583,770.7078 312.19783,771.69901 C 317.85754,773.25214 318.39351,773.23468 324.10353,771.31111 C 328.58597,769.80109 332.48443,769.32371 339.67702,769.40412 C 344.95388,769.46311 352.94392,768.96708 357.43267,768.30185 C 367.4931,766.81088 378.17253,768.07308 385.93569,771.6706 C 392.8819,774.88954 400.58268,781.79858 402.89284,786.88432 C 407.67708,797.4167 403.43794,819.38241 392.20662,842.25637 L 387.13286,852.5897 L 394.02211,851.89783 C 400.32934,851.26443 401.11666,851.39883 403.34134,853.48882 C 404.67782,854.74437 405.77131,856.61555 405.77131,857.647 C 405.77131,865.44169 392.99108,873.32146 380.22379,873.39858 L 376.17627,873.42303 L 375.01735,883.79391 C 372.80913,903.55478 368.13726,910.37206 354.27131,914.06694 C 347.4267,915.89083 344.96239,915.76353 340.05089,913.33236 z M 360.83003,908.31528 C 367.18045,904.78462 369.24358,899.86941 371.36946,883.2061 L 373.12788,869.42303 L 378.76809,869.42303 C 386.26829,869.42303 393.43296,867.17386 398.02131,863.37895 C 404.88585,857.70146 402.10913,853.82187 392.32123,855.4149 C 389.18561,855.92524 385.3024,856.07925 383.69187,855.75714 L 380.76365,855.1715 L 382.68517,852.04726 C 387.19936,844.70758 393.16066,831.49392 396.42973,821.58145 C 400.49974,809.24035 402.04782,793.919 399.77836,788.44005 C 398.05352,784.27593 390.48746,777.71846 383.77131,774.56682 C 378.76319,772.2167 377.19811,771.99465 366.27131,772.08403 C 336.82074,772.32493 328.45948,772.91282 323.69499,775.07762 L 319.11867,777.15692 L 311.69499,775.21778 C 307.37974,774.09059 300.7122,773.24599 295.77131,773.20065 C 281.97198,773.07407 273.64586,777.88784 268.57714,788.92303 C 265.42608,795.78324 265.46388,811.85827 268.6618,824.92303 C 276.65721,857.5874 285.13172,873.42303 294.6168,873.42303 C 298.191,873.42303 300.49954,871.51066 309.4747,861.11489 L 313.6258,856.30676 L 317.84327,857.44241 C 322.03628,858.57146 322.04934,858.58945 320.09493,860.54386 C 319.01373,861.62505 315.68865,863.15345 312.70585,863.94029 C 307.51617,865.3093 304.37366,867.73008 305.07088,869.82174 C 305.93057,872.40079 311.07124,874.8171 316.54004,875.21267 C 321.7715,875.59109 325.38869,874.70181 330.90659,871.68066 C 331.25599,871.48936 331.72988,877.54064 331.95967,885.12793 C 332.43218,900.72933 334.10598,905.76968 340.06165,909.52569 C 344.4799,912.3121 354.71395,911.71564 360.83003,908.31528 z M 311.17097,750.99509 C 309.46578,750.25278 307.76769,748.85599 307.39743,747.8911 C 306.26902,744.95052 307.70134,744.86801 310.34696,747.72118 C 312.47959,750.02112 313.66435,750.42303 318.31178,750.42303 C 324.73103,750.42303 327.77131,748.17323 327.77131,743.42303 C 327.77131,739.93715 327.8606,739.97415 324.13562,741.91687 C 318.47497,744.8691 309.24088,743.03746 306.80095,738.47842 C 305.47885,736.00804 305.47885,730.83802 306.80095,728.36764 C 309.48856,723.3458 321.25518,721.83599 325.78144,725.93219 C 327.5743,727.55471 327.77131,727.56915 327.77131,726.07802 C 327.77131,725.16777 328.44631,724.42303 329.27131,724.42303 C 330.51,724.42303 330.77131,726.26367 330.77131,734.98877 C 330.77131,740.79993 330.28509,746.46303 329.69082,747.57343 C 327.37037,751.90922 317.47187,753.73802 311.17097,750.99509 z M 325.31676,738.96848 C 328.75781,735.52743 328.67532,730.27929 325.13645,727.49561 C 321.59646,724.71105 314.94616,724.71105 311.40617,727.49561 C 307.68394,730.4235 307.68394,736.42255 311.40617,739.35045 C 315.25165,742.37531 322.09793,742.18732 325.31676,738.96848 z M 246.15943,743.44295 C 238.25837,740.25057 237.72198,728.57245 245.311,724.97122 C 251.4346,722.06538 261.31899,723.84083 263.69082,728.27263 C 265.08025,730.86879 265.08025,736.97726 263.69082,739.57343 C 261.57074,743.53484 251.75107,745.70223 246.15943,743.44295 z M 258.61192,740.82212 C 261.91928,738.50554 263.05847,734.82316 261.72124,730.7713 C 260.35254,726.6241 258.2349,725.42303 252.2916,725.42303 C 248.72909,725.42303 247.12218,725.98125 245.22585,727.87757 C 241.88636,731.21708 241.88636,736.62897 245.22585,739.96848 C 248.16443,742.90705 255.01184,743.34371 258.61192,740.82212 z M 272.03011,743.71844 C 269.24763,743.18185 266.39593,739.39841 267.7519,738.04244 C 268.36797,737.42637 269.46963,738.04107 270.81521,739.75171 C 272.65552,742.09128 273.62776,742.42303 278.64389,742.42303 C 284.55581,742.42303 286.77131,741.29422 286.77131,738.28205 C 286.77131,735.90006 286.06785,735.59969 277.71496,734.41503 C 269.37005,733.23152 267.5485,732.13173 267.97075,728.53179 C 268.35714,725.2376 271.8938,723.45673 278.08705,723.43777 C 284.10268,723.41936 288.69474,725.67268 288.756,728.67303 C 288.78777,730.22904 286.20122,729.34107 284.97294,727.37428 C 283.88761,725.63639 282.84265,725.37086 278.08591,725.62428 C 273.96895,725.84362 272.18499,726.40378 271.37482,727.73159 C 269.73995,730.41103 272.7107,732.15026 280.31283,732.96438 C 287.59313,733.74402 290.38541,735.84014 289.39586,739.78281 C 288.43164,743.62456 280.66751,745.38417 272.03011,743.71844 z M 299.27131,743.72267 C 295.80913,742.9119 294.77131,740.39319 294.77131,732.80145 C 294.77131,726.08907 294.60753,725.53058 292.52131,725.12876 L 290.27131,724.69538 L 292.52131,724.55921 C 294.40013,724.4455 294.77131,723.84564 294.77131,720.92303 C 294.77131,716.28526 297.51361,716.06636 297.95795,720.66866 C 298.21817,723.36383 298.78009,724.02215 301.27131,724.55034 L 304.27131,725.1864 L 300.98087,725.30471 L 297.69043,725.42303 L 297.98087,733.67303 C 298.26911,741.86063 298.29224,741.92543 301.03826,742.24109 C 302.56009,742.41602 303.54603,742.97852 303.22925,743.49109 C 302.62548,744.46799 302.48831,744.47601 299.27131,743.72267 z M 355.05544,743.72177 C 351.85944,743.10316 347.77131,737.81343 347.77131,734.29665 C 347.77131,732.66152 348.43264,730.04485 349.24093,728.48179 C 352.81716,721.5661 368.40751,721.93964 371.63275,729.01828 C 374.00765,734.23059 373.65655,734.42303 361.77131,734.42303 C 351.57605,734.42303 350.77131,734.56403 350.77131,736.35045 C 350.77131,742.08578 362.64307,744.64218 367.36222,739.92303 C 370.98768,736.29756 372.84568,736.54702 370.79242,740.38359 C 369.06538,743.61059 362.10694,745.08663 355.05544,743.72177 z M 369.77131,730.99561 C 369.77131,728.19957 364.75775,725.42303 359.70903,725.42303 C 355.72262,725.42303 354.56784,725.86624 352.84389,728.05789 C 351.70397,729.50706 350.77131,731.08205 350.77131,731.55789 C 350.77131,732.03372 355.04631,732.42303 360.27131,732.42303 C 367.8344,732.42303 369.77131,732.132 369.77131,730.99561 z M 212.77131,728.33698 L 212.77131,713.25091 L 224.36174,713.58698 C 235.13195,713.89925 236.08731,714.0901 237.86174,716.28381 C 240.76835,719.87723 240.41402,725.77232 237.13645,728.35045 C 234.89685,730.11212 233.09672,730.42303 225.13645,730.42303 L 215.77131,730.42303 L 215.77131,736.92303 C 215.77131,742.03413 215.4508,743.42303 214.27131,743.42303 C 213.00426,743.42303 212.77131,741.08014 212.77131,728.33698 z M 234.94257,726.76804 C 237.35542,724.58443 237.26997,719.92169 234.77131,717.42303 C 233.08503,715.73676 231.43798,715.42303 224.27131,715.42303 L 215.77131,715.42303 L 215.77131,721.92303 L 215.77131,728.42303 L 224.44257,728.42303 C 231.10794,728.42303 233.53686,728.04019 234.94257,726.76804 z M 334.77131,733.92303 C 334.77131,728.25635 335.17482,724.42303 335.77131,724.42303 C 336.32131,724.42303 336.77131,725.13068 336.77131,725.99561 C 336.77131,727.29921 337.22199,727.21369 339.40617,725.49561 C 342.11435,723.36536 347.77131,722.64002 347.77131,724.42303 C 347.77131,724.97303 346.61673,725.42303 345.20557,725.42303 C 339.41868,725.42303 336.77131,729.55034 336.77131,738.57225 C 336.77131,741.24018 336.32131,743.42303 335.77131,743.42303 C 335.17482,743.42303 334.77131,739.5897 334.77131,733.92303 z "
         id="path4532" />
    </g>
    <flowRoot
       xml:space="preserve"
       id="flowRoot4601"
       style="font-size:18px;text-align:center;text-anchor:middle"
       transform="translate(-20.652626,106.46095)"><flowRegion
         id="flowRegion4603"><rect
           id="rect4605"
           width="120"
           height="23.571428"
           x="571.42859"
           y="296.64789"
           style="font-size:18px;text-align:center;text-anchor:middle" /></flowRegion><flowPara
         id="flowPara4607">PostgreSQL</flowPara></flowRoot>    <path
       style="fill:none;fill-rule:evenodd;stroke:#000000;stroke-width:1px;stroke-linecap:butt;stroke-linejoin:miter;marker-start:none;marker-end:url(#Arrow1Send);stroke-opacity:1"
       d="M 470,375.21932 L 554.28571,309.50504"
       id="path4621" />
    <path
       style="fill:none;fill-rule:evenodd;stroke:#000000;stroke-width:1px;stroke-linecap:butt;stroke-linejoin:miter;marker-start:none;marker-end:url(#Arrow1Send);stroke-opacity:1"
       d="M 469.28572,375.57647 L 556.78572,357.71932"
       id="path4623" />
    <path
       style="fill:none;fill-rule:evenodd;stroke:#000000;stroke-width:1px;stroke-linecap:butt;stroke-linejoin:miter;marker-start:none;marker-end:url(#Arrow1Send);stroke-opacity:1"
       d="M 469.28572,375.21933 L 556.78572,409.1479"
       id="path4625"
       sodipodi:nodetypes="cc" />
    <path
       style="fill:none;fill-rule:evenodd;stroke:#000000;stroke-width:1px;stroke-linecap:butt;stroke-linejoin:miter;marker-start:none;marker-end:url(#Arrow1Send);stroke-opacity:1"
       d="M 469.28572,375.57647 L 557.5,464.1479"
       id="path4627" />
  </g>
</svg>
