<?xml version="1.0" encoding="UTF-8" standalone="no"?>
<!-- Created with Inkscape (http://www.inkscape.org/) -->
<svg
   xmlns:dc="http://purl.org/dc/elements/1.1/"
   xmlns:cc="http://web.resource.org/cc/"
   xmlns:rdf="http://www.w3.org/1999/02/22-rdf-syntax-ns#"
   xmlns:svg="http://www.w3.org/2000/svg"
   xmlns="http://www.w3.org/2000/svg"
   xmlns:sodipodi="http://sodipodi.sourceforge.net/DTD/sodipodi-0.dtd"
   xmlns:inkscape="http://www.inkscape.org/namespaces/inkscape"
   width="210mm"
   height="297mm"
   id="svg4395"
   sodipodi:version="0.32"
   inkscape:version="0.45.1"
   sodipodi:docbase="D:\Documents\Documents PHPBoost\schémas documentation"
   sodipodi:docname="logosSGBD.svg"
   inkscape:output_extension="org.inkscape.output.svg.inkscape">
  <defs
     id="defs4397" />
  <sodipodi:namedview
     id="base"
     pagecolor="#ffffff"
     bordercolor="#666666"
     borderopacity="1.0"
     inkscape:pageopacity="0.0"
     inkscape:pageshadow="2"
     inkscape:zoom="0.98994949"
     inkscape:cx="290.26446"
     inkscape:cy="418.32735"
     inkscape:document-units="px"
     inkscape:current-layer="layer1"
     inkscape:window-width="1280"
     inkscape:window-height="744"
     inkscape:window-x="-4"
     inkscape:window-y="-4" />
  <metadata
     id="metadata4400">
    <rdf:RDF>
      <cc:Work
         rdf:about="">
        <dc:format>image/svg+xml</dc:format>
        <dc:type
           rdf:resource="http://purl.org/dc/dcmitype/StillImage" />
      </cc:Work>
    </rdf:RDF>
  </metadata>
  <g
     inkscape:label="Calque 1"
     inkscape:groupmode="layer"
     id="layer1">
    <g
       id="g4584"
       transform="translate(-26.785714,-21.428571)">
      <path
         sodipodi:nodetypes="cccccccscccccccccccccsccssssscccccccccssssssccccsssssscccccccssssccccccccccssssscccccssssscccccccccscccccccssssssccssssssssccsssssssssssssssssssscccsssssssssssscccsssssccssssc"
         style="fill:#e39404"
         d="M 322.1723,572.00425 C 321.80563,571.63759 321.50563,570.28759 321.50563,569.00425 L 321.50563,566.67092 L 337.80563,566.67092 C 355.40056,566.67092 356.50563,566.36363 356.50563,561.47092 L 356.50563,558.67092 L 343.97351,558.67092 C 331.12234,558.67092 326.70528,557.72771 323.21597,554.2384 C 321.80072,552.82316 321.50563,550.54631 321.50563,541.04199 L 321.50563,529.55592 L 325.75563,529.86342 L 330.00563,530.17092 L 330.28828,541.41006 C 330.61977,554.5913 329.27302,553.5033 345.75774,553.90737 L 356.50985,554.17092 L 356.61404,544.17092 C 356.77115,529.09113 356.4068,530.21425 361.25563,529.86342 L 365.50563,529.55592 L 365.50563,547.5365 L 365.50563,565.51707 L 362.57638,568.44633 C 360.35358,570.66913 358.36391,571.52968 354.32638,572.01456 C 347.28309,572.8604 323.02067,572.85262 322.1723,572.00425 z M 457.00563,562.67092 C 454.14736,559.68753 454.06949,559.67092 442.94066,559.67092 C 430.52245,559.67092 425.63746,558.32795 422.90905,554.16387 C 420.97113,551.20622 420.05175,529.31344 421.63608,523.85113 C 423.24261,518.31232 428.28343,516.71934 444.28775,516.69288 C 466.35676,516.65639 467.50563,517.72638 467.50563,538.3167 C 467.50563,552.02566 467.41858,552.62092 464.99207,555.50467 L 462.47851,558.49186 L 466.67207,562.08139 L 470.86563,565.67092 L 465.37272,565.67092 C 460.57486,565.67092 459.51612,565.29131 457.00563,562.67092 z M 443.27032,550.14386 L 439.535,546.67092 L 444.72271,546.67092 C 449.21806,546.67092 450.35985,547.10466 453.27794,549.92092 C 456.54226,553.07131 456.6893,553.11143 458.07555,551.22979 C 459.11293,549.82169 459.50563,546.24436 459.50563,538.2023 C 459.50563,522.74672 459.43915,522.67092 445.88318,522.67092 C 440.10321,522.67092 434.50373,523.13675 433.43989,523.7061 C 431.67511,524.65058 431.50563,525.91673 431.50563,538.15641 C 431.50563,553.72806 431.43191,553.60811 441.00563,553.61345 L 447.00563,553.6168 L 443.27032,550.14386 z M 248.50563,539.82591 C 248.50563,521.16968 248.62693,519.87112 250.53049,518.14842 C 253.46825,515.48978 261.81769,515.50339 264.33384,518.17092 C 265.37142,519.27092 269.31208,527.48342 273.09087,536.42092 C 276.86967,545.35842 280.20872,552.67092 280.51099,552.67092 C 280.81327,552.67092 282.36532,549.63342 283.96,545.92092 C 289.76035,532.4174 295.68663,520.1315 297.2156,518.44048 C 299.53523,515.87499 304.59788,515.2648 308.84397,517.03893 L 312.50563,518.56887 L 312.50563,539.11989 L 312.50563,559.67092 L 308.50563,559.67092 L 304.50563,559.67092 L 304.50563,542.22994 C 304.50563,532.6374 304.16813,524.58093 303.75563,524.32668 C 303.34313,524.07243 299.85563,530.87345 296.00563,539.44005 C 287.24731,558.92812 286.69112,559.67092 280.85738,559.67092 C 277.44103,559.67092 275.87631,559.12793 274.37369,557.42092 C 273.28435,556.18342 269.05168,547.74592 264.96775,538.67092 L 257.54242,522.17092 L 257.52403,540.92092 L 257.50563,559.67092 L 253.00563,559.67092 L 248.50563,559.67092 L 248.50563,539.82591 z M 373.50563,556.67092 L 373.50563,553.67092 L 386.94053,553.67092 C 404.05738,553.67092 405.50563,553.16854 405.50563,547.23085 C 405.50563,541.42081 404.08056,540.67092 393.03925,540.67092 C 384.30157,540.67092 378.89955,539.24238 375.29223,535.97779 C 374.00786,534.81546 373.50563,532.8814 373.50563,529.09772 C 373.50563,522.09929 374.07204,520.93277 378.58913,518.62832 C 381.94033,516.91866 384.51937,516.67092 398.96579,516.67092 L 415.50563,516.67092 L 415.50563,519.67092 L 415.50563,522.67092 L 399.61262,522.67092 C 382.28134,522.67092 382.50563,522.59225 382.50563,528.67092 C 382.50563,534.37024 382.99437,534.66892 392.36262,534.69478 C 402.44726,534.72261 407.84135,535.78685 411.42824,538.45636 C 413.57861,540.05676 414.05519,541.30602 414.30476,545.99669 C 414.67765,553.00524 413.46166,555.33361 408.17495,557.73397 C 404.67652,559.32239 401.55175,559.63053 388.75563,559.64896 L 373.50563,559.67092 L 373.50563,556.67092 z M 482.09656,558.19018 C 474.23298,555.38808 474.04704,554.86826 473.67465,534.64517 L 473.34366,516.67092 L 477.86019,516.67092 L 482.37671,516.67092 L 482.69117,534.09017 C 482.86412,543.67076 483.37982,551.88326 483.83716,552.34017 C 484.29449,552.79708 491.60699,553.32381 500.08716,553.51067 L 515.50563,553.85042 L 515.50563,556.76067 L 515.50563,559.67092 L 500.75563,559.62703 C 490.78784,559.59737 484.73824,559.13151 482.09656,558.19018 z M 519.44857,555.24235 C 519.51898,554.04916 517.5875,555.60499 517.4572,554.06398 C 517.38221,553.17704 519.95967,553.60396 520.6764,553.60396 C 521.42059,553.60396 523.15906,553.22468 523.21215,554.26097 C 523.26565,555.30552 521.16217,554.27457 521.18758,555.26453 C 521.22376,556.67458 521.1278,558.20082 521.14685,559.51452 C 521.15365,559.98336 519.31139,560.07159 519.31259,559.49235 C 519.31369,559.00128 519.46753,556.89235 519.44857,555.24235 z M 524.35377,556.69771 C 524.54359,554.73367 525.59054,551.91688 526.12258,553.40478 C 526.6661,554.92475 528.8594,555.42376 529.46086,553.4765 C 530.11034,551.37375 531.53345,556.08518 531.44771,556.93015 C 531.41014,557.3005 531.86782,559.21803 530.77083,559.30738 C 530.47839,559.3312 529.96863,556.14004 529.78381,556.34056 C 529.37235,556.78699 528.98187,557.9191 528.36594,557.99178 C 527.73801,558.06589 527.72252,558.50239 526.51965,556.85737 C 525.2969,555.18517 526.01391,559.74185 525.11951,559.64365 C 524.06752,559.52815 524.15116,558.43615 524.35377,556.69771 z M 521.00563,522.07112 C 513.34099,517.86788 507.50563,512.64896 507.50563,509.99724 C 507.50563,508.55556 513.09476,506.87127 519.25416,506.4568 C 521.59086,506.29957 523.50336,505.85019 523.50416,505.45818 C 523.50677,504.18948 511.58743,496.60997 507.23388,495.1119 C 499.19084,492.34427 498.88159,491.97842 492.31098,477.45782 C 485.31866,462.00527 478.64837,452.27077 471.00563,446.36514 C 463.78459,440.78536 454.7937,436.67265 449.81465,436.67171 C 447.50961,436.67128 445.31789,436.17617 444.94417,435.57148 C 444.57045,434.96679 441.54963,433.18803 438.23124,431.61867 C 433.67747,429.46508 431.74504,429.00761 430.35171,429.7533 C 429.33637,430.29669 428.50563,430.98004 428.50563,431.27185 C 428.50563,432.30308 430.74894,435.97237 433.91628,440.12181 C 435.67969,442.432 438.37813,447.88812 439.91282,452.24653 C 441.44752,456.60495 443.55873,461.09992 444.6044,462.23537 C 446.94254,464.77424 446.98026,466.99397 444.81746,474.77312 C 443.39793,479.87891 443.31462,481.72867 444.29396,486.39767 C 445.47059,492.00731 447.80703,496.67092 449.44079,496.67092 C 449.92976,496.67092 450.6476,494.75842 451.03598,492.42092 C 451.80063,487.8188 454.07703,482.67092 455.34744,482.67092 C 455.78219,482.67092 457.44544,485.48342 459.04355,488.92092 C 460.64167,492.35842 463.2676,497.19592 464.87896,499.67092 L 467.8087,504.17092 L 464.06954,500.67092 C 462.013,498.74592 459.40294,495.37092 458.26942,493.17092 C 456.43957,489.61946 456.12088,489.39519 455.42733,491.17092 C 454.99771,492.27092 454.61457,494.31842 454.57592,495.72092 C 454.43575,500.80608 450.30843,502.21881 446.72767,498.40727 C 441.58461,492.93273 439.9761,481.28351 442.99112,471.34616 C 444.36136,466.82992 444.32871,466.35034 442.48047,463.84616 C 441.39449,462.37478 438.99667,457.32348 437.15196,452.62106 C 435.30726,447.91864 432.15719,441.92167 430.1518,439.29447 C 425.76822,433.55167 425.35582,429.47041 428.92292,427.13316 C 432.0071,425.11232 438.01388,426.53378 444.30576,430.77339 C 447.36271,432.83323 449.82614,433.67092 452.82667,433.67092 C 461.11062,433.67092 478.27706,446.22566 486.68214,458.43124 C 488.29571,460.77441 492.23485,468.42441 495.43579,475.43124 L 501.25566,488.17092 L 509.62439,492.67092 C 518.6576,497.52822 528.53623,506.04796 526.95108,507.61418 C 526.43108,508.12796 523.92046,508.79606 521.37191,509.09884 C 518.82337,509.40161 515.69862,510.0339 514.42804,510.50392 C 511.75785,511.49169 511.57297,511.27748 521.33678,518.50908 C 525.49627,521.58983 531.00142,527.15017 529.31233,526.56459 C 529.14365,526.50611 525.40563,524.48405 521.00563,522.07112 z M 450.50563,448.49966 C 450.50563,447.85547 449.76089,446.50547 448.85064,445.49966 C 447.48523,443.9909 447.45024,443.67092 448.65064,443.67092 C 449.45089,443.67092 450.64563,444.21092 451.30563,444.87092 C 452.75877,446.32406 452.89822,449.67092 451.50563,449.67092 C 450.95563,449.67092 450.50563,449.14385 450.50563,448.49966 z "
         id="path4423" />
      <path
         style="fill:#066688"
         d="M 322.1723,572.00425 C 321.80563,571.63759 321.50563,570.28759 321.50563,569.00425 L 321.50563,566.67092 L 337.80563,566.67092 C 355.40056,566.67092 356.50563,566.36363 356.50563,561.47092 L 356.50563,558.67092 L 343.97351,558.67092 C 331.12234,558.67092 326.70528,557.72771 323.21597,554.2384 C 321.80072,552.82316 321.50563,550.54631 321.50563,541.04199 L 321.50563,529.55592 L 325.75563,529.86342 L 330.00563,530.17092 L 330.28828,541.41006 C 330.61977,554.5913 329.27302,553.5033 345.75774,553.90737 L 356.50985,554.17092 L 356.61404,544.17092 C 356.77115,529.09113 356.4068,530.21425 361.25563,529.86342 L 365.50563,529.55592 L 365.50563,547.5365 L 365.50563,565.51707 L 362.57638,568.44633 C 360.35358,570.66913 358.36391,571.52968 354.32638,572.01456 C 347.28309,572.8604 323.02067,572.85262 322.1723,572.00425 z M 248.50563,539.82591 C 248.50563,521.16968 248.62693,519.87112 250.53049,518.14842 C 253.46825,515.48978 261.81769,515.50339 264.33384,518.17092 C 265.37142,519.27092 269.31208,527.48342 273.09087,536.42092 C 276.86967,545.35842 280.20872,552.67092 280.51099,552.67092 C 280.81327,552.67092 282.36532,549.63342 283.96,545.92092 C 289.76035,532.4174 295.68663,520.1315 297.2156,518.44048 C 299.53523,515.87499 304.59788,515.2648 308.84397,517.03893 L 312.50563,518.56887 L 312.50563,539.11989 L 312.50563,559.67092 L 308.50563,559.67092 L 304.50563,559.67092 L 304.50563,542.22994 C 304.50563,532.6374 304.16813,524.58093 303.75563,524.32668 C 303.34313,524.07243 299.85563,530.87345 296.00563,539.44005 C 287.24731,558.92812 286.69112,559.67092 280.85738,559.67092 C 277.44103,559.67092 275.87631,559.12793 274.37369,557.42092 C 273.28435,556.18342 269.05168,547.74592 264.96775,538.67092 L 257.54242,522.17092 L 257.52403,540.92092 L 257.50563,559.67092 L 253.00563,559.67092 L 248.50563,559.67092 L 248.50563,539.82591 z M 521.00563,522.07112 C 513.34099,517.86788 507.50563,512.64896 507.50563,509.99724 C 507.50563,508.55556 513.09476,506.87127 519.25416,506.4568 C 521.59086,506.29957 523.50336,505.85019 523.50416,505.45818 C 523.50677,504.18948 511.58743,496.60997 507.23388,495.1119 C 499.19084,492.34427 498.88159,491.97842 492.31098,477.45782 C 485.31866,462.00527 478.64837,452.27077 471.00563,446.36514 C 463.78459,440.78536 454.7937,436.67265 449.81465,436.67171 C 447.50961,436.67128 445.31789,436.17617 444.94417,435.57148 C 444.57045,434.96679 441.54963,433.18803 438.23124,431.61867 C 433.67747,429.46508 431.74504,429.00761 430.35171,429.7533 C 429.33637,430.29669 428.50563,430.98004 428.50563,431.27185 C 428.50563,432.30308 430.74894,435.97237 433.91628,440.12181 C 435.67969,442.432 438.37813,447.88812 439.91282,452.24653 C 441.44752,456.60495 443.55873,461.09992 444.6044,462.23537 C 446.94254,464.77424 446.98026,466.99397 444.81746,474.77312 C 443.39793,479.87891 443.31462,481.72867 444.29396,486.39767 C 445.47059,492.00731 447.80703,496.67092 449.44079,496.67092 C 449.92976,496.67092 450.6476,494.75842 451.03598,492.42092 C 451.80063,487.8188 454.07703,482.67092 455.34744,482.67092 C 455.78219,482.67092 457.44544,485.48342 459.04355,488.92092 C 460.64167,492.35842 463.2676,497.19592 464.87896,499.67092 L 467.8087,504.17092 L 464.06954,500.67092 C 462.013,498.74592 459.40294,495.37092 458.26942,493.17092 C 456.43957,489.61946 456.12088,489.39519 455.42733,491.17092 C 454.99771,492.27092 454.61457,494.31842 454.57592,495.72092 C 454.43575,500.80608 450.30843,502.21881 446.72767,498.40727 C 441.58461,492.93273 439.9761,481.28351 442.99112,471.34616 C 444.36136,466.82992 444.32871,466.35034 442.48047,463.84616 C 441.39449,462.37478 438.99667,457.32348 437.15196,452.62106 C 435.30726,447.91864 432.15719,441.92167 430.1518,439.29447 C 425.76822,433.55167 425.35582,429.47041 428.92292,427.13316 C 432.0071,425.11232 438.01388,426.53378 444.30576,430.77339 C 447.36271,432.83323 449.82614,433.67092 452.82667,433.67092 C 461.11062,433.67092 478.27706,446.22566 486.68214,458.43124 C 488.29571,460.77441 492.23485,468.42441 495.43579,475.43124 L 501.25566,488.17092 L 509.62439,492.67092 C 518.6576,497.52822 528.53623,506.04796 526.95108,507.61418 C 526.43108,508.12796 523.92046,508.79606 521.37191,509.09884 C 518.82337,509.40161 515.69862,510.0339 514.42804,510.50392 C 511.75785,511.49169 511.57297,511.27748 521.33678,518.50908 C 525.49627,521.58983 531.00142,527.15017 529.31233,526.56459 C 529.14365,526.50611 525.40563,524.48405 521.00563,522.07112 z M 450.50563,448.49966 C 450.50563,447.85547 449.76089,446.50547 448.85064,445.49966 C 447.48523,443.9909 447.45024,443.67092 448.65064,443.67092 C 449.45089,443.67092 450.64563,444.21092 451.30563,444.87092 C 452.75877,446.32406 452.89822,449.67092 451.50563,449.67092 C 450.95563,449.67092 450.50563,449.14385 450.50563,448.49966 z "
         id="path4419" />
    </g>
    <path
       id="path4480"
       d="M 391.11215,665.50938 C 390.55436,665.1053 390.15018,663.0524 390.21397,660.94738 C 390.31551,657.59654 391.25097,656.18565 397.72813,649.61428 C 407.07211,640.13437 422.4877,627.6145 434.12631,620.05324 C 448.67941,610.59852 477.49108,596.80613 479.17364,598.48869 C 479.43886,598.7539 475.4867,600.89312 470.39108,603.2425 C 444.81628,615.03398 420.62342,631.02915 400.0847,649.72574 C 393.15678,656.03228 391.62631,657.95467 391.62631,660.35009 C 391.62631,662.12716 392.15183,663.27469 392.96566,663.27469 C 394.39532,663.27469 401.15703,656.884 414.18117,643.22326 C 418.61135,638.57655 426.36684,631.84969 431.41561,628.27469 C 440.18305,622.06652 459.01799,611.30844 461.12631,611.30463 C 461.67631,611.30364 458.9758,613.02052 455.12518,615.11993 C 441.85176,622.35677 430.30071,631.3982 416.62631,645.2544 C 404.40433,657.63886 394.5799,666.29986 392.79971,666.25938 C 392.42934,666.25096 391.66994,665.91346 391.11215,665.50938 z M 425.62631,641.74331 C 425.62631,640.93557 425.81451,640.27469 426.04452,640.27469 C 426.27454,640.27469 427.17964,639.99959 428.05586,639.66335 C 429.1979,639.22511 429.48231,639.48637 429.06033,640.58603 C 428.25037,642.69675 425.62631,643.58107 425.62631,641.74331 z M 431.62631,642.44052 C 431.62631,640.33575 461.22238,628.2033 466.05146,628.32847 C 467.19263,628.35805 465.65131,629.18229 462.62631,630.16013 C 459.60131,631.13797 452.00633,634.48877 445.74859,637.60635 C 434.69099,643.1152 431.62631,644.16427 431.62631,642.44052 z M 288.16119,637.22842 C 284.61073,634.77243 283.1463,634.44674 274.15762,634.11401 C 265.73252,633.80213 263.5005,633.36005 260.26972,631.36332 C 252.82122,626.7599 250.65945,619.05037 254.63309,611.26141 C 260.14507,600.45703 274.7206,592.48555 281.20062,596.73142 C 283.70737,598.37391 283.72665,598.47261 282.04284,601.04242 C 280.6973,603.09598 280.60678,603.76818 281.62984,604.1092 C 283.77285,604.82354 290.64126,611.566 292.18931,614.47503 C 294.76493,619.31501 294.03863,623.9235 289.58716,630.9862 C 288.34275,632.96058 288.4404,633.53197 290.49785,636.31482 C 291.76537,638.02922 292.6503,639.55326 292.46437,639.70157 C 292.27844,639.84988 290.34201,638.73696 288.16119,637.22842 z M 278.03878,628.66991 C 278.9056,628.33727 279.33305,627.6092 278.98865,627.05196 C 277.86998,625.24191 276.76819,619.06853 277.31124,617.65336 C 277.60222,616.89509 278.47679,616.27469 279.25474,616.27469 C 280.72652,616.27469 282.07081,618.82452 283.07541,623.52173 C 283.59989,625.97401 283.87557,626.13597 285.64462,625.03118 C 286.73455,624.35051 287.62631,622.8318 287.62631,621.65627 C 287.62631,618.74323 284.95298,612.56953 282.03498,608.74384 C 280.71021,607.00698 279.62631,604.82676 279.62631,603.89891 C 279.62631,602.97107 278.94597,601.95085 278.11444,601.63176 C 275.64416,600.68383 266.15117,605.98162 261.7348,610.77282 C 258.35135,614.44343 257.62631,615.93577 257.62631,619.22929 C 257.62631,622.39558 258.14892,623.57101 260.13539,624.8726 C 265.59407,628.44926 273.97914,630.22773 278.03878,628.66991 z M 223.12631,635.66505 C 217.38448,634.30955 212.03615,630.95237 210.37631,627.6618 C 208.09946,623.14804 208.16809,621.121 210.49529,624.14725 C 212.01757,626.12679 213.46604,626.60181 219.23949,627.0149 C 226.25832,627.5171 237.51843,625.43904 240.30366,623.1275 C 241.69648,621.97157 242.03903,618.5138 241.02303,615.86614 C 240.06349,613.36561 229.63955,607.69731 223.62631,606.40619 C 220.60131,605.75669 217.54857,604.86291 216.84244,604.42003 C 212.71521,601.83144 222.68862,596.27469 231.46193,596.27469 C 234.74638,596.27469 238.044,596.85963 239.09594,597.62882 C 240.73239,598.82543 240.10648,599.04315 233.71546,599.50042 C 229.73766,599.78503 226.0274,600.4736 225.47044,601.03056 C 224.03299,602.46801 227.704,604.80471 235.44872,607.38198 C 238.97868,608.55668 243.27522,610.77618 244.99657,612.31421 C 247.8419,614.85651 248.12631,615.65379 248.12631,621.08767 C 248.12631,628.14654 246.76201,630.10965 239.7642,633.12003 C 234.87476,635.22341 226.61043,636.48757 223.12631,635.66505 z M 300.60333,634.73985 C 299.42924,633.31948 299.12631,629.48285 299.12631,616.0332 C 299.12631,600.43857 299.27834,599.00222 301.06744,597.69404 C 303.56377,595.86873 303.9418,595.89982 306.73309,598.16007 C 308.57712,599.65328 308.81825,600.33849 307.89231,601.45418 C 306.559,603.06072 304.16201,624.62237 305.05735,626.95557 C 305.69025,628.60489 307.55221,628.48229 317.29862,626.14953 C 321.409,625.16573 323.31897,625.16564 326.60148,626.14911 C 335.04467,628.67875 332.38357,633.33377 321.86212,634.43958 C 318.15742,634.82895 312.19097,635.45784 308.60333,635.83711 C 303.02741,636.42658 301.8659,636.26727 300.60333,634.73985 z M 362.64624,634.52314 C 358.1467,632.26249 354.90058,627.32681 354.04918,621.45143 C 353.1779,615.43878 352.61681,614.5672 351.02171,616.74863 C 349.58137,618.7184 346.92298,618.21138 345.99368,615.78965 C 345.15987,613.61679 348.15729,609.48005 350.84272,609.09747 C 352.73546,608.82782 353.22416,607.95167 353.81165,603.77469 C 355.42078,592.33409 355.50589,592.12579 358.43306,592.46374 C 361.39538,592.80576 361.53581,593.63544 360.12363,602.45173 L 359.37446,607.12877 L 366.50039,607.83094 C 373.80575,608.55079 376.38246,610.27469 370.15306,610.27469 C 366.32567,610.27469 357.62307,614.0621 357.63189,615.72396 C 357.65489,620.05725 360.29143,624.86913 365.18325,629.50573 C 368.17693,632.34323 370.62631,635.02704 370.62631,635.46975 C 370.62631,636.8608 366.27071,636.34413 362.64624,634.52314 z M 380.58775,634.47635 C 374.44134,631.28308 372.62631,629.82786 372.62631,628.09316 C 372.62631,627.15792 373.01199,626.15436 373.48338,625.86303 C 373.95477,625.57169 374.60614,622.75911 374.93086,619.61284 C 375.76543,611.52666 378.08735,608.75755 383.96806,608.83514 C 390.83753,608.92577 392.95634,611.28142 392.38334,618.19109 C 392.0128,622.65928 391.40196,624.08595 388.90371,626.31814 C 387.2371,627.80726 385.25539,629.24506 384.49991,629.51325 C 381.64905,630.52531 384.98098,631.72935 391.67999,632.10788 C 399.23329,632.53468 400.38536,633.46583 395.47709,635.17687 C 390.80327,636.80616 384.5015,636.50968 380.58775,634.47635 z M 384.92099,622.08181 C 387.14692,619.10042 386.47162,615.27469 383.71944,615.27469 C 380.98433,615.27469 378.30871,622.62376 380.31381,624.62886 C 381.37561,625.69066 382.82474,624.88952 384.92099,622.08181 z M 338.15528,631.97006 C 335.79952,626.37342 334.47084,618.30663 335.19016,613.96791 C 335.71411,610.80762 336.18259,610.21324 337.94877,610.46791 C 339.11888,610.63664 340.64338,611.89969 341.33654,613.27469 C 343.12005,616.8126 343.01742,631.3633 341.19152,633.83356 C 339.82551,635.68164 339.67997,635.59232 338.15528,631.97006 z M 414.10697,627.76342 C 416.20754,626.12325 419.12631,626.13777 419.12631,627.78839 C 419.12631,628.33085 417.55131,628.89513 415.62631,629.04232 C 412.29684,629.29692 412.22281,629.2346 414.10697,627.76342 z M 405.56573,623.21411 C 404.30084,621.94922 403.62508,620.16912 403.81573,618.60419 C 404.08761,616.37248 405.15905,615.70918 412.415,613.28065 C 416.97378,611.75486 423.17841,608.86335 426.20307,606.85509 C 431.50656,603.33377 433.62631,602.9914 433.62631,605.65613 C 433.62631,607.55377 427.61519,618.27469 426.5512,618.27469 C 425.05242,618.27469 425.48982,616.01084 427.68394,612.41191 C 428.81152,610.56238 429.52958,608.84463 429.27963,608.59468 C 429.02968,608.34473 426.64293,609.23405 423.97574,610.57094 C 421.30856,611.90783 417.32631,613.5462 415.12631,614.21176 C 404.82688,617.32762 403.46756,618.81411 408.12631,621.86665 C 409.50131,622.76758 410.62631,623.90295 410.62631,624.3897 C 410.62631,625.99824 407.66102,625.3094 405.56573,623.21411 z M 460.9942,624.48845 C 461.86349,623.08192 470.00408,619.42374 475.12631,618.13784 C 482.22489,616.3558 482.8668,615.27469 476.82631,615.27469 C 473.62987,615.27469 471.62631,614.83964 471.62631,614.14557 C 471.62631,613.34001 473.99052,613.22198 479.87631,613.73369 C 484.41381,614.12817 488.28387,614.60634 488.47645,614.79628 C 489.41872,615.72567 487.2646,617.11997 483.91588,617.74819 C 481.863,618.13331 476.12053,619.98111 471.15484,621.85441 C 461.76632,625.39621 460.17883,625.80775 460.9942,624.48845 z M 465.12631,609.73858 C 466.77631,608.98305 468.80131,608.37884 469.62631,608.39587 C 470.45131,608.41291 469.55131,609.03338 467.62631,609.77469 C 463.06061,611.53293 461.26425,611.50698 465.12631,609.73858 z M 488.10983,606.90123 C 492.16236,603.32189 507.08125,595.03071 511.62631,593.83193 C 513.00131,593.46927 510.97631,594.90483 507.12631,597.02207 C 503.27631,599.1393 496.97631,602.8158 493.12631,605.19207 C 483.89184,610.89168 483.40343,611.05809 488.10983,606.90123 z M 442.33286,608.64791 C 441.61534,607.93038 444.11874,602.62855 446.40743,600.01856 C 448.82509,597.26151 447.21434,596.944 442.47322,599.24307 L 438.12631,601.35097 L 441.62631,598.2731 C 445.31384,595.0303 454.45778,590.27469 457.00537,590.27469 C 459.61838,590.27469 459.70034,591.99616 457.16638,593.65648 C 453.79008,595.86872 450.03994,599.99431 446.8344,605.0229 C 444.10984,609.29695 443.48504,609.80009 442.33286,608.64791 z M 334.82631,602.07469 C 332.85977,600.10815 333.45853,598.27469 336.06729,598.27469 C 339.06733,598.27469 340.20485,599.87267 338.58996,601.8185 C 337.12137,603.58803 336.38947,603.63785 334.82631,602.07469 z M 470.62631,595.90032 C 470.62631,595.14442 473.81554,592.10692 477.71348,589.15032 C 483.20477,584.98517 484.35269,583.70562 482.81131,583.46796 C 481.0874,583.20215 474.76088,584.58479 468.12631,586.6773 C 467.02631,587.02424 468.91858,585.92015 472.33136,584.22378 C 482.20385,579.3165 493.52432,579.07788 489.5549,583.86073 C 488.87093,584.68487 485.11969,587.47394 481.21881,590.05867 C 477.31794,592.6434 473.76645,595.3244 473.32662,596.01644 C 472.26239,597.69092 470.62631,597.62057 470.62631,595.90032 z M 487.12631,593.49188 C 488.19666,592.33894 496.8268,589.14185 497.37875,589.6938 C 497.56054,589.87559 495.77812,590.80504 493.4178,591.75924 C 486.51578,594.54949 486.01693,594.68687 487.12631,593.49188 z M 520.62631,589.75715 C 524.20131,587.84749 528.13881,585.13262 529.37631,583.7241 C 530.72129,582.19325 531.62631,581.71882 531.62631,582.54461 C 531.62631,584.74001 527.60637,587.89673 521.25188,590.69127 C 513.14409,594.25686 512.89602,593.88645 520.62631,589.75715 z M 531.70526,578.85802 C 531.66184,577.80386 531.89819,577.21323 532.23048,577.54552 C 532.56277,577.87782 532.59829,578.74032 532.30942,579.46219 C 531.9902,580.25992 531.75324,580.02297 531.70526,578.85802 z M 491.62631,575.72366 C 491.62631,574.17752 499.32013,572.28255 505.34419,572.34498 C 517.02044,572.46598 516.87,573.81385 505.03718,575.09565 C 492.63535,576.43909 491.62631,576.48634 491.62631,575.72366 z M 516.89714,574.67052 C 517.22943,574.33823 518.09193,574.30271 518.81381,574.59158 C 519.61154,574.9108 519.37459,575.14776 518.20964,575.19574 C 517.15548,575.23916 516.56485,575.00282 516.89714,574.67052 z "
       style="fill:#7da397" />
    <g
       id="g4594">
      <path
         style="fill:#2c5c8b"
         d="M 340.05089,913.33236 C 333.11268,909.89801 328.77131,898.51885 328.77131,883.76748 L 328.77131,877.38493 L 326.02131,878.15398 C 320.59465,879.67156 310.17311,878.85765 306.38066,876.62005 C 303.14185,874.70911 302.56498,874.6494 300.04438,875.9642 C 292.39574,879.95393 283.49743,874.72051 277.3828,862.63611 C 273.85438,855.66286 269.15303,841.78873 266.28581,829.88781 C 258.61664,798.05557 263.06029,780.16772 280.6489,772.06939 C 284.47417,770.30812 287.08205,769.95244 295.77131,770.00688 C 302.17068,770.04696 308.58583,770.7078 312.19783,771.69901 C 317.85754,773.25214 318.39351,773.23468 324.10353,771.31111 C 328.58597,769.80109 332.48443,769.32371 339.67702,769.40412 C 344.95388,769.46311 352.94392,768.96708 357.43267,768.30185 C 367.4931,766.81088 378.17253,768.07308 385.93569,771.6706 C 392.8819,774.88954 400.58268,781.79858 402.89284,786.88432 C 407.67708,797.4167 403.43794,819.38241 392.20662,842.25637 L 387.13286,852.5897 L 394.02211,851.89783 C 400.32934,851.26443 401.11666,851.39883 403.34134,853.48882 C 404.67782,854.74437 405.77131,856.61555 405.77131,857.647 C 405.77131,865.44169 392.99108,873.32146 380.22379,873.39858 L 376.17627,873.42303 L 375.01735,883.79391 C 372.80913,903.55478 368.13726,910.37206 354.27131,914.06694 C 347.4267,915.89083 344.96239,915.76353 340.05089,913.33236 z M 360.83003,908.31528 C 367.18045,904.78462 369.24358,899.86941 371.36946,883.2061 L 373.12788,869.42303 L 378.76809,869.42303 C 386.26829,869.42303 393.43296,867.17386 398.02131,863.37895 C 404.88585,857.70146 402.10913,853.82187 392.32123,855.4149 C 389.18561,855.92524 385.3024,856.07925 383.69187,855.75714 L 380.76365,855.1715 L 382.68517,852.04726 C 387.19936,844.70758 393.16066,831.49392 396.42973,821.58145 C 400.49974,809.24035 402.04782,793.919 399.77836,788.44005 C 398.05352,784.27593 390.48746,777.71846 383.77131,774.56682 C 378.76319,772.2167 377.19811,771.99465 366.27131,772.08403 C 336.82074,772.32493 328.45948,772.91282 323.69499,775.07762 L 319.11867,777.15692 L 311.69499,775.21778 C 307.37974,774.09059 300.7122,773.24599 295.77131,773.20065 C 281.97198,773.07407 273.64586,777.88784 268.57714,788.92303 C 265.42608,795.78324 265.46388,811.85827 268.6618,824.92303 C 276.65721,857.5874 285.13172,873.42303 294.6168,873.42303 C 298.191,873.42303 300.49954,871.51066 309.4747,861.11489 L 313.6258,856.30676 L 317.84327,857.44241 C 322.03628,858.57146 322.04934,858.58945 320.09493,860.54386 C 319.01373,861.62505 315.68865,863.15345 312.70585,863.94029 C 307.51617,865.3093 304.37366,867.73008 305.07088,869.82174 C 305.93057,872.40079 311.07124,874.8171 316.54004,875.21267 C 321.7715,875.59109 325.38869,874.70181 330.90659,871.68066 C 331.25599,871.48936 331.72988,877.54064 331.95967,885.12793 C 332.43218,900.72933 334.10598,905.76968 340.06165,909.52569 C 344.4799,912.3121 354.71395,911.71564 360.83003,908.31528 z M 343.86771,906.18309 C 337.75198,902.97698 335.858,895.04286 335.80219,872.39554 C 335.76799,858.5204 334.93235,856.0558 329.79899,854.69001 L 326.91629,853.92303 L 329.95523,846.92303 C 333.38658,839.01918 334.43917,830.48379 333.29739,819.82192 C 332.66867,813.95109 332.1178,812.56952 329.27018,809.7219 C 326.42196,806.87368 325.29129,806.42303 320.99343,806.42303 C 318.2556,806.42303 314.31984,807.13155 312.2473,807.99751 L 308.47905,809.57199 L 309.08687,805.13739 C 310.75054,792.99959 317.16159,783.22217 325.93002,779.4501 C 333.15657,776.34132 344.70147,776.86481 353.02395,780.67863 C 360.48385,784.09716 368.69747,791.93111 372.70491,799.44983 L 375.88859,805.42303 L 372.29783,805.42303 C 367.4026,805.42303 362.27388,807.72637 360.23273,810.84157 C 358.94875,812.80115 358.63733,814.97805 358.94647,819.83285 C 359.29521,825.30976 360.28941,828.07552 365.80335,838.90795 C 369.35029,845.87613 372.844,852.06839 373.56713,852.66854 C 374.61829,853.54093 374.34896,854.18467 372.22383,855.87919 C 369.88863,857.74122 369.46119,859.02659 368.70502,866.46085 C 366.92961,883.91576 364.72064,896.82655 362.99651,899.82543 C 359.94721,905.12928 348.87633,908.80881 343.86771,906.18309 z M 311.27131,869.42303 C 310.93139,868.87302 311.57073,868.42303 312.69206,868.42303 C 316.40231,868.42303 322.43199,865.37325 324.64819,862.37568 C 327.14848,858.99386 329.26374,858.60611 330.68857,861.26842 C 331.92877,863.58576 329.85293,866.81233 325.76027,868.92874 C 322.51176,870.60861 312.22101,870.95968 311.27131,869.42303 z M 289.56587,865.67303 C 283.9708,859.70843 277.60087,843.04514 273.28502,823.08344 C 267.6285,796.92088 271.74681,783.10239 286.4767,778.82029 C 292.59743,777.04094 301.32651,777.2724 309.9374,779.44235 L 314.60349,780.6182 L 311.68398,785.22179 C 305.51867,794.94347 304.56683,799.20405 303.73428,820.80589 C 302.91601,842.03727 303.22719,844.47195 307.49328,850.21627 L 309.93905,853.5095 L 303.26528,860.96627 C 295.79901,869.30852 293.66416,870.042 289.56587,865.67303 z M 376.02131,864.66402 C 373.41853,864.22433 373.00057,861.30758 375.27041,859.42377 C 376.45378,858.44165 377.38678,858.43532 379.70046,859.39368 C 381.31249,860.06141 385.3212,860.45367 388.60872,860.26538 C 395.39303,859.8768 395.64974,860.59028 389.51097,862.77292 C 384.72344,864.47514 379.35677,865.22749 376.02131,864.66402 z M 315.69299,851.14923 C 313.83724,849.89864 311.28776,847.34533 310.02748,845.47519 C 307.85055,842.24485 307.75967,841.39887 308.20857,828.54386 L 308.68107,815.01275 L 311.97619,813.33866 C 324.16639,807.14535 329.07626,811.30943 329.17266,827.92303 C 329.21241,834.77391 328.7201,837.17935 325.7452,844.66942 C 321.91629,854.30964 321.13248,854.81489 315.69299,851.14923 z M 325.33018,816.92303 C 327.25169,815.43818 327.25169,815.40787 325.33018,813.92303 C 324.26256,813.09803 322.56094,812.42303 321.5488,812.42303 C 318.87833,812.42303 318.06826,815.43578 320.29996,817.06764 C 322.62705,818.76925 322.95315,818.75986 325.33018,816.92303 z M 377.78662,850.29515 C 377.7782,849.94982 378.39298,848.14981 379.1528,846.29515 C 380.18921,843.76534 380.49721,837.92728 380.38582,822.92303 L 380.23736,802.92303 L 377.25433,797.46298 C 373.60117,790.77632 364.66602,781.44039 359.27131,778.67335 L 355.27131,776.62167 L 360.27131,775.86652 C 366.72811,774.89131 377.47322,776.72468 383.56206,779.84044 C 386.15215,781.16583 390.07131,784.11179 392.27131,786.38702 C 396.26052,790.51266 396.27104,790.5446 396.17001,798.22343 C 396.06666,806.07897 393.55487,817.20223 389.57633,827.42303 C 386.30418,835.82912 377.83455,852.26027 377.78662,850.29515 z M 368.93326,834.63346 C 360.25327,816.60658 360.99534,810.42303 371.8387,810.42303 C 376.6587,810.42303 376.86793,810.53287 376.12442,812.67303 C 375.69451,813.91053 375.44535,821.53016 375.57073,829.60555 C 375.69611,837.68093 375.41432,844.52562 374.94453,844.81597 C 374.47473,845.10632 371.76966,840.52418 368.93326,834.63346 z M 371.57131,815.22303 C 373.48695,813.30739 372.96381,811.42172 370.52131,811.43834 C 367.32723,811.46008 365.37629,812.95124 366.09421,814.8221 C 366.81774,816.70761 369.86376,816.93057 371.57131,815.22303 z M 311.17097,750.99509 C 309.46578,750.25278 307.76769,748.85599 307.39743,747.8911 C 306.26902,744.95052 307.70134,744.86801 310.34696,747.72118 C 312.47959,750.02112 313.66435,750.42303 318.31178,750.42303 C 324.73103,750.42303 327.77131,748.17323 327.77131,743.42303 C 327.77131,739.93715 327.8606,739.97415 324.13562,741.91687 C 318.47497,744.8691 309.24088,743.03746 306.80095,738.47842 C 305.47885,736.00804 305.47885,730.83802 306.80095,728.36764 C 309.48856,723.3458 321.25518,721.83599 325.78144,725.93219 C 327.5743,727.55471 327.77131,727.56915 327.77131,726.07802 C 327.77131,725.16777 328.44631,724.42303 329.27131,724.42303 C 330.51,724.42303 330.77131,726.26367 330.77131,734.98877 C 330.77131,740.79993 330.28509,746.46303 329.69082,747.57343 C 327.37037,751.90922 317.47187,753.73802 311.17097,750.99509 z M 325.31676,738.96848 C 328.75781,735.52743 328.67532,730.27929 325.13645,727.49561 C 321.59646,724.71105 314.94616,724.71105 311.40617,727.49561 C 307.68394,730.4235 307.68394,736.42255 311.40617,739.35045 C 315.25165,742.37531 322.09793,742.18732 325.31676,738.96848 z M 440.01293,744.47267 C 438.10113,742.87797 437.18035,742.74743 434.01293,743.62208 C 428.96214,745.0168 419.5154,744.0417 415.53034,741.71429 C 413.74161,740.66963 411.22399,738.26423 409.93564,736.36896 C 408.01298,733.5406 407.66929,731.9747 408.01795,727.63156 C 408.79331,717.97301 415.19219,712.95943 426.77131,712.93812 C 438.70396,712.91616 445.27512,718.70515 445.12476,729.10694 C 445.06608,733.16661 444.45073,735.15454 442.43455,737.7979 L 439.82043,741.22519 L 442.32773,742.86803 C 443.70675,743.77161 444.56914,744.94113 444.24416,745.46695 C 443.41011,746.81647 442.5924,746.62432 440.01293,744.47267 z M 434.13553,741.04421 C 439.31606,738.87964 441.77194,735.01628 441.76757,729.03817 C 441.76251,722.10576 439.22542,718.14378 433.35584,715.90215 C 424.82371,712.64371 416.14551,715.38966 412.52286,722.49411 C 410.15164,727.14436 410.32318,731.45646 413.04124,735.52515 C 417.23996,741.81024 426.50224,744.2336 434.13553,741.04421 z M 246.15943,743.44295 C 238.25837,740.25057 237.72198,728.57245 245.311,724.97122 C 251.4346,722.06538 261.31899,723.84083 263.69082,728.27263 C 265.08025,730.86879 265.08025,736.97726 263.69082,739.57343 C 261.57074,743.53484 251.75107,745.70223 246.15943,743.44295 z M 258.61192,740.82212 C 261.91928,738.50554 263.05847,734.82316 261.72124,730.7713 C 260.35254,726.6241 258.2349,725.42303 252.2916,725.42303 C 248.72909,725.42303 247.12218,725.98125 245.22585,727.87757 C 241.88636,731.21708 241.88636,736.62897 245.22585,739.96848 C 248.16443,742.90705 255.01184,743.34371 258.61192,740.82212 z M 272.03011,743.71844 C 269.24763,743.18185 266.39593,739.39841 267.7519,738.04244 C 268.36797,737.42637 269.46963,738.04107 270.81521,739.75171 C 272.65552,742.09128 273.62776,742.42303 278.64389,742.42303 C 284.55581,742.42303 286.77131,741.29422 286.77131,738.28205 C 286.77131,735.90006 286.06785,735.59969 277.71496,734.41503 C 269.37005,733.23152 267.5485,732.13173 267.97075,728.53179 C 268.35714,725.2376 271.8938,723.45673 278.08705,723.43777 C 284.10268,723.41936 288.69474,725.67268 288.756,728.67303 C 288.78777,730.22904 286.20122,729.34107 284.97294,727.37428 C 283.88761,725.63639 282.84265,725.37086 278.08591,725.62428 C 273.96895,725.84362 272.18499,726.40378 271.37482,727.73159 C 269.73995,730.41103 272.7107,732.15026 280.31283,732.96438 C 287.59313,733.74402 290.38541,735.84014 289.39586,739.78281 C 288.43164,743.62456 280.66751,745.38417 272.03011,743.71844 z M 299.27131,743.72267 C 295.80913,742.9119 294.77131,740.39319 294.77131,732.80145 C 294.77131,726.08907 294.60753,725.53058 292.52131,725.12876 L 290.27131,724.69538 L 292.52131,724.55921 C 294.40013,724.4455 294.77131,723.84564 294.77131,720.92303 C 294.77131,716.28526 297.51361,716.06636 297.95795,720.66866 C 298.21817,723.36383 298.78009,724.02215 301.27131,724.55034 L 304.27131,725.1864 L 300.98087,725.30471 L 297.69043,725.42303 L 297.98087,733.67303 C 298.26911,741.86063 298.29224,741.92543 301.03826,742.24109 C 302.56009,742.41602 303.54603,742.97852 303.22925,743.49109 C 302.62548,744.46799 302.48831,744.47601 299.27131,743.72267 z M 355.05544,743.72177 C 351.85944,743.10316 347.77131,737.81343 347.77131,734.29665 C 347.77131,732.66152 348.43264,730.04485 349.24093,728.48179 C 352.81716,721.5661 368.40751,721.93964 371.63275,729.01828 C 374.00765,734.23059 373.65655,734.42303 361.77131,734.42303 C 351.57605,734.42303 350.77131,734.56403 350.77131,736.35045 C 350.77131,742.08578 362.64307,744.64218 367.36222,739.92303 C 370.98768,736.29756 372.84568,736.54702 370.79242,740.38359 C 369.06538,743.61059 362.10694,745.08663 355.05544,743.72177 z M 369.77131,730.99561 C 369.77131,728.19957 364.75775,725.42303 359.70903,725.42303 C 355.72262,725.42303 354.56784,725.86624 352.84389,728.05789 C 351.70397,729.50706 350.77131,731.08205 350.77131,731.55789 C 350.77131,732.03372 355.04631,732.42303 360.27131,732.42303 C 367.8344,732.42303 369.77131,732.132 369.77131,730.99561 z M 383.18998,743.39869 C 379.66981,742.31861 377.29912,739.93316 376.50596,736.67303 C 376.09187,734.971 376.39643,734.42303 377.75652,734.42303 C 378.85268,734.42303 379.80587,735.42458 380.19849,736.98892 C 381.62191,742.66026 396.87563,744.48231 400.93744,739.46619 C 404.9007,734.57177 401.88628,731.15715 392.14561,729.5072 C 381.67001,727.73276 379.11749,726.673 377.82947,723.56345 C 376.45659,720.24901 377.72135,716.05532 380.55047,714.54121 C 383.84679,712.77707 392.13825,712.17548 396.59942,713.37675 C 401.18278,714.61091 404.77131,717.48559 404.77131,719.92303 C 404.77131,722.32609 401.80878,721.65177 400.80858,719.02105 C 399.61015,715.86896 393.91376,713.99459 387.99723,714.80553 C 382.43231,715.5683 380.77131,716.85956 380.77131,720.42303 C 380.77131,724.32966 382.46738,725.32011 392.2255,727.11189 C 402.90262,729.0724 406.00463,731.18151 405.57484,736.18836 C 405.12212,741.46231 401.40423,743.80028 392.98934,744.1027 C 389.29442,744.23548 384.88471,743.91868 383.18998,743.39869 z M 212.77131,728.33698 L 212.77131,713.25091 L 224.36174,713.58698 C 235.13195,713.89925 236.08731,714.0901 237.86174,716.28381 C 240.76835,719.87723 240.41402,725.77232 237.13645,728.35045 C 234.89685,730.11212 233.09672,730.42303 225.13645,730.42303 L 215.77131,730.42303 L 215.77131,736.92303 C 215.77131,742.03413 215.4508,743.42303 214.27131,743.42303 C 213.00426,743.42303 212.77131,741.08014 212.77131,728.33698 z M 234.94257,726.76804 C 237.35542,724.58443 237.26997,719.92169 234.77131,717.42303 C 233.08503,715.73676 231.43798,715.42303 224.27131,715.42303 L 215.77131,715.42303 L 215.77131,721.92303 L 215.77131,728.42303 L 224.44257,728.42303 C 231.10794,728.42303 233.53686,728.04019 234.94257,726.76804 z M 334.77131,733.92303 C 334.77131,728.25635 335.17482,724.42303 335.77131,724.42303 C 336.32131,724.42303 336.77131,725.13068 336.77131,725.99561 C 336.77131,727.29921 337.22199,727.21369 339.40617,725.49561 C 342.11435,723.36536 347.77131,722.64002 347.77131,724.42303 C 347.77131,724.97303 346.61673,725.42303 345.20557,725.42303 C 339.41868,725.42303 336.77131,729.55034 336.77131,738.57225 C 336.77131,741.24018 336.32131,743.42303 335.77131,743.42303 C 335.17482,743.42303 334.77131,739.5897 334.77131,733.92303 z M 448.77131,728.42303 C 448.77131,715.75635 449.00464,713.42303 450.27131,713.42303 C 451.53321,713.42303 451.77131,715.64525 451.77131,727.42303 L 451.77131,741.42303 L 463.27131,741.42303 C 470.27131,741.42303 474.77131,741.81433 474.77131,742.42303 C 474.77131,743.03841 469.77131,743.42303 461.77131,743.42303 L 448.77131,743.42303 L 448.77131,728.42303 z "
         id="path4536" />
      <path
         style="fill:#050605"
         d="M 340.05089,913.33236 C 333.11268,909.89801 328.77131,898.51885 328.77131,883.76748 L 328.77131,877.38493 L 326.02131,878.15398 C 320.59465,879.67156 310.17311,878.85765 306.38066,876.62005 C 303.14185,874.70911 302.56498,874.6494 300.04438,875.9642 C 292.39574,879.95393 283.49743,874.72051 277.3828,862.63611 C 273.85438,855.66286 269.15303,841.78873 266.28581,829.88781 C 258.61664,798.05557 263.06029,780.16772 280.6489,772.06939 C 284.47417,770.30812 287.08205,769.95244 295.77131,770.00688 C 302.17068,770.04696 308.58583,770.7078 312.19783,771.69901 C 317.85754,773.25214 318.39351,773.23468 324.10353,771.31111 C 328.58597,769.80109 332.48443,769.32371 339.67702,769.40412 C 344.95388,769.46311 352.94392,768.96708 357.43267,768.30185 C 367.4931,766.81088 378.17253,768.07308 385.93569,771.6706 C 392.8819,774.88954 400.58268,781.79858 402.89284,786.88432 C 407.67708,797.4167 403.43794,819.38241 392.20662,842.25637 L 387.13286,852.5897 L 394.02211,851.89783 C 400.32934,851.26443 401.11666,851.39883 403.34134,853.48882 C 404.67782,854.74437 405.77131,856.61555 405.77131,857.647 C 405.77131,865.44169 392.99108,873.32146 380.22379,873.39858 L 376.17627,873.42303 L 375.01735,883.79391 C 372.80913,903.55478 368.13726,910.37206 354.27131,914.06694 C 347.4267,915.89083 344.96239,915.76353 340.05089,913.33236 z M 360.83003,908.31528 C 367.18045,904.78462 369.24358,899.86941 371.36946,883.2061 L 373.12788,869.42303 L 378.76809,869.42303 C 386.26829,869.42303 393.43296,867.17386 398.02131,863.37895 C 404.88585,857.70146 402.10913,853.82187 392.32123,855.4149 C 389.18561,855.92524 385.3024,856.07925 383.69187,855.75714 L 380.76365,855.1715 L 382.68517,852.04726 C 387.19936,844.70758 393.16066,831.49392 396.42973,821.58145 C 400.49974,809.24035 402.04782,793.919 399.77836,788.44005 C 398.05352,784.27593 390.48746,777.71846 383.77131,774.56682 C 378.76319,772.2167 377.19811,771.99465 366.27131,772.08403 C 336.82074,772.32493 328.45948,772.91282 323.69499,775.07762 L 319.11867,777.15692 L 311.69499,775.21778 C 307.37974,774.09059 300.7122,773.24599 295.77131,773.20065 C 281.97198,773.07407 273.64586,777.88784 268.57714,788.92303 C 265.42608,795.78324 265.46388,811.85827 268.6618,824.92303 C 276.65721,857.5874 285.13172,873.42303 294.6168,873.42303 C 298.191,873.42303 300.49954,871.51066 309.4747,861.11489 L 313.6258,856.30676 L 317.84327,857.44241 C 322.03628,858.57146 322.04934,858.58945 320.09493,860.54386 C 319.01373,861.62505 315.68865,863.15345 312.70585,863.94029 C 307.51617,865.3093 304.37366,867.73008 305.07088,869.82174 C 305.93057,872.40079 311.07124,874.8171 316.54004,875.21267 C 321.7715,875.59109 325.38869,874.70181 330.90659,871.68066 C 331.25599,871.48936 331.72988,877.54064 331.95967,885.12793 C 332.43218,900.72933 334.10598,905.76968 340.06165,909.52569 C 344.4799,912.3121 354.71395,911.71564 360.83003,908.31528 z M 311.17097,750.99509 C 309.46578,750.25278 307.76769,748.85599 307.39743,747.8911 C 306.26902,744.95052 307.70134,744.86801 310.34696,747.72118 C 312.47959,750.02112 313.66435,750.42303 318.31178,750.42303 C 324.73103,750.42303 327.77131,748.17323 327.77131,743.42303 C 327.77131,739.93715 327.8606,739.97415 324.13562,741.91687 C 318.47497,744.8691 309.24088,743.03746 306.80095,738.47842 C 305.47885,736.00804 305.47885,730.83802 306.80095,728.36764 C 309.48856,723.3458 321.25518,721.83599 325.78144,725.93219 C 327.5743,727.55471 327.77131,727.56915 327.77131,726.07802 C 327.77131,725.16777 328.44631,724.42303 329.27131,724.42303 C 330.51,724.42303 330.77131,726.26367 330.77131,734.98877 C 330.77131,740.79993 330.28509,746.46303 329.69082,747.57343 C 327.37037,751.90922 317.47187,753.73802 311.17097,750.99509 z M 325.31676,738.96848 C 328.75781,735.52743 328.67532,730.27929 325.13645,727.49561 C 321.59646,724.71105 314.94616,724.71105 311.40617,727.49561 C 307.68394,730.4235 307.68394,736.42255 311.40617,739.35045 C 315.25165,742.37531 322.09793,742.18732 325.31676,738.96848 z M 246.15943,743.44295 C 238.25837,740.25057 237.72198,728.57245 245.311,724.97122 C 251.4346,722.06538 261.31899,723.84083 263.69082,728.27263 C 265.08025,730.86879 265.08025,736.97726 263.69082,739.57343 C 261.57074,743.53484 251.75107,745.70223 246.15943,743.44295 z M 258.61192,740.82212 C 261.91928,738.50554 263.05847,734.82316 261.72124,730.7713 C 260.35254,726.6241 258.2349,725.42303 252.2916,725.42303 C 248.72909,725.42303 247.12218,725.98125 245.22585,727.87757 C 241.88636,731.21708 241.88636,736.62897 245.22585,739.96848 C 248.16443,742.90705 255.01184,743.34371 258.61192,740.82212 z M 272.03011,743.71844 C 269.24763,743.18185 266.39593,739.39841 267.7519,738.04244 C 268.36797,737.42637 269.46963,738.04107 270.81521,739.75171 C 272.65552,742.09128 273.62776,742.42303 278.64389,742.42303 C 284.55581,742.42303 286.77131,741.29422 286.77131,738.28205 C 286.77131,735.90006 286.06785,735.59969 277.71496,734.41503 C 269.37005,733.23152 267.5485,732.13173 267.97075,728.53179 C 268.35714,725.2376 271.8938,723.45673 278.08705,723.43777 C 284.10268,723.41936 288.69474,725.67268 288.756,728.67303 C 288.78777,730.22904 286.20122,729.34107 284.97294,727.37428 C 283.88761,725.63639 282.84265,725.37086 278.08591,725.62428 C 273.96895,725.84362 272.18499,726.40378 271.37482,727.73159 C 269.73995,730.41103 272.7107,732.15026 280.31283,732.96438 C 287.59313,733.74402 290.38541,735.84014 289.39586,739.78281 C 288.43164,743.62456 280.66751,745.38417 272.03011,743.71844 z M 299.27131,743.72267 C 295.80913,742.9119 294.77131,740.39319 294.77131,732.80145 C 294.77131,726.08907 294.60753,725.53058 292.52131,725.12876 L 290.27131,724.69538 L 292.52131,724.55921 C 294.40013,724.4455 294.77131,723.84564 294.77131,720.92303 C 294.77131,716.28526 297.51361,716.06636 297.95795,720.66866 C 298.21817,723.36383 298.78009,724.02215 301.27131,724.55034 L 304.27131,725.1864 L 300.98087,725.30471 L 297.69043,725.42303 L 297.98087,733.67303 C 298.26911,741.86063 298.29224,741.92543 301.03826,742.24109 C 302.56009,742.41602 303.54603,742.97852 303.22925,743.49109 C 302.62548,744.46799 302.48831,744.47601 299.27131,743.72267 z M 355.05544,743.72177 C 351.85944,743.10316 347.77131,737.81343 347.77131,734.29665 C 347.77131,732.66152 348.43264,730.04485 349.24093,728.48179 C 352.81716,721.5661 368.40751,721.93964 371.63275,729.01828 C 374.00765,734.23059 373.65655,734.42303 361.77131,734.42303 C 351.57605,734.42303 350.77131,734.56403 350.77131,736.35045 C 350.77131,742.08578 362.64307,744.64218 367.36222,739.92303 C 370.98768,736.29756 372.84568,736.54702 370.79242,740.38359 C 369.06538,743.61059 362.10694,745.08663 355.05544,743.72177 z M 369.77131,730.99561 C 369.77131,728.19957 364.75775,725.42303 359.70903,725.42303 C 355.72262,725.42303 354.56784,725.86624 352.84389,728.05789 C 351.70397,729.50706 350.77131,731.08205 350.77131,731.55789 C 350.77131,732.03372 355.04631,732.42303 360.27131,732.42303 C 367.8344,732.42303 369.77131,732.132 369.77131,730.99561 z M 212.77131,728.33698 L 212.77131,713.25091 L 224.36174,713.58698 C 235.13195,713.89925 236.08731,714.0901 237.86174,716.28381 C 240.76835,719.87723 240.41402,725.77232 237.13645,728.35045 C 234.89685,730.11212 233.09672,730.42303 225.13645,730.42303 L 215.77131,730.42303 L 215.77131,736.92303 C 215.77131,742.03413 215.4508,743.42303 214.27131,743.42303 C 213.00426,743.42303 212.77131,741.08014 212.77131,728.33698 z M 234.94257,726.76804 C 237.35542,724.58443 237.26997,719.92169 234.77131,717.42303 C 233.08503,715.73676 231.43798,715.42303 224.27131,715.42303 L 215.77131,715.42303 L 215.77131,721.92303 L 215.77131,728.42303 L 224.44257,728.42303 C 231.10794,728.42303 233.53686,728.04019 234.94257,726.76804 z M 334.77131,733.92303 C 334.77131,728.25635 335.17482,724.42303 335.77131,724.42303 C 336.32131,724.42303 336.77131,725.13068 336.77131,725.99561 C 336.77131,727.29921 337.22199,727.21369 339.40617,725.49561 C 342.11435,723.36536 347.77131,722.64002 347.77131,724.42303 C 347.77131,724.97303 346.61673,725.42303 345.20557,725.42303 C 339.41868,725.42303 336.77131,729.55034 336.77131,738.57225 C 336.77131,741.24018 336.32131,743.42303 335.77131,743.42303 C 335.17482,743.42303 334.77131,739.5897 334.77131,733.92303 z "
         id="path4532" />
    </g>
  </g>
</svg>
